<svg xmlns="http://www.w3.org/2000/svg" viewBox="0 0 970.73 696.98"><defs><style>.cls-1{fill:#f4f4f4;}.cls-2{opacity:0.65;}.cls-10,.cls-11,.cls-12,.cls-13,.cls-14,.cls-15,.cls-16,.cls-17,.cls-18,.cls-19,.cls-20,.cls-21,.cls-22,.cls-23,.cls-24,.cls-25,.cls-26,.cls-27,.cls-28,.cls-29,.cls-3,.cls-30,.cls-31,.cls-32,.cls-33,.cls-34,.cls-35,.cls-36,.cls-37,.cls-38,.cls-39,.cls-4,.cls-40,.cls-41,.cls-42,.cls-43,.cls-44,.cls-45,.cls-46,.cls-47,.cls-48,.cls-49,.cls-5,.cls-50,.cls-51,.cls-52,.cls-53,.cls-54,.cls-55,.cls-56,.cls-57,.cls-58,.cls-59,.cls-6,.cls-60,.cls-61,.cls-62,.cls-63,.cls-64,.cls-65,.cls-66,.cls-67,.cls-68,.cls-69,.cls-7,.cls-70,.cls-71,.cls-72,.cls-73,.cls-74,.cls-75,.cls-76,.cls-77,.cls-78,.cls-79,.cls-8,.cls-80,.cls-9,.cls-94{fill:none;}.cls-21,.cls-27,.cls-3,.cls-41,.cls-48,.cls-51,.cls-61,.cls-76{stroke:#43a34c;}.cls-3{stroke-width:51.08px;}.cls-22,.cls-30,.cls-4,.cls-40,.cls-52{stroke:#f0b938;}.cls-4{stroke-width:7.35px;}.cls-20,.cls-24,.cls-36,.cls-47,.cls-5,.cls-53,.cls-60,.cls-71{stroke:#f77940;}.cls-5{stroke-width:2.37px;}.cls-15,.cls-25,.cls-34,.cls-43,.cls-54,.cls-6,.cls-63,.cls-67,.cls-77{stroke:#f05454;}.cls-6{stroke-width:2.24px;}.cls-16,.cls-32,.cls-37,.cls-49,.cls-55,.cls-58,.cls-62,.cls-7,.cls-70,.cls-72{stroke:#fa3ccc;}.cls-7{stroke-width:1.78px;}.cls-31,.cls-39,.cls-8{stroke:#e0cc45;}.cls-18,.cls-26,.cls-35,.cls-45,.cls-56,.cls-64,.cls-69,.cls-75,.cls-9{stroke:#a344f0;}.cls-10,.cls-17,.cls-28,.cls-33,.cls-44,.cls-57,.cls-65,.cls-68,.cls-78{stroke:#47cfe0;}.cls-11,.cls-19,.cls-29,.cls-38,.cls-50,.cls-74{stroke:#7032fa;}.cls-12,.cls-73{stroke:#ff7f0e;}.cls-13,.cls-23,.cls-42,.cls-59{stroke:#344df0;}.cls-14,.cls-46,.cls-79{stroke:#46e030;}.cls-15{stroke-width:18.82px;}.cls-16{stroke-width:17.69px;}.cls-17{stroke-width:15.82px;}.cls-18{stroke-width:8.83px;}.cls-19{stroke-width:4.8px;}.cls-20{stroke-width:2.29px;}.cls-21{stroke-width:1.37px;}.cls-23{stroke-width:27.92px;}.cls-24{stroke-width:15.5px;}.cls-25{stroke-width:5.95px;}.cls-26{stroke-width:5.4px;}.cls-27{stroke-width:5.36px;}.cls-28{stroke-width:3.39px;}.cls-29{stroke-width:1.74px;}.cls-30{stroke-width:1.51px;}.cls-31{stroke-width:1.36px;}.cls-32{stroke-width:1.29px;}.cls-33{stroke-width:18px;}.cls-34{stroke-width:14.31px;}.cls-35{stroke-width:7.23px;}.cls-36{stroke-width:4.11px;}.cls-37{stroke-width:3.84px;}.cls-38{stroke-width:3.37px;}.cls-39{stroke-width:1.28px;}.cls-40{stroke-width:1.16px;}.cls-41{stroke-width:1.03px;}.cls-42{stroke-width:1.01px;}.cls-43{stroke-width:16.58px;}.cls-44{stroke-width:15.05px;}.cls-45{stroke-width:9.15px;}.cls-46{stroke-width:3.51px;}.cls-47{stroke-width:2.88px;}.cls-48{stroke-width:1.55px;}.cls-49{stroke-width:1.49px;}.cls-50{stroke-width:1.14px;}.cls-51{stroke-width:45.07px;}.cls-52{stroke-width:3.31px;}.cls-56{stroke-width:14.18px;}.cls-57{stroke-width:5.08px;}.cls-58{stroke-width:1.83px;}.cls-59{stroke-width:1.56px;}.cls-60{stroke-width:1.09px;}.cls-62{stroke-width:17.17px;}.cls-63{stroke-width:14.91px;}.cls-64{stroke-width:4.87px;}.cls-65{stroke-width:1.82px;}.cls-66{stroke:#f0ad00;}.cls-67{stroke-width:15.91px;}.cls-68{stroke-width:6.13px;}.cls-69{stroke-width:5.22px;}.cls-70{stroke-width:3.57px;}.cls-71{stroke-width:2.06px;}.cls-72{stroke-width:9.37px;}.cls-73{stroke-width:4.29px;}.cls-74{stroke-width:4.11px;}.cls-75{stroke-width:2.34px;}.cls-76{stroke-width:1.91px;}.cls-77{stroke-width:1.87px;}.cls-78{stroke-width:1.84px;}.cls-79{stroke-width:1.09px;}.cls-80{stroke:#7c62f0;}.cls-100,.cls-81{fill:#f05454;}.cls-105,.cls-82{fill:#43a34c;}.cls-109,.cls-83{fill:#47cfe0;}.cls-84{fill:#a344f0;}.cls-110,.cls-85{fill:#fa3ccc;}.cls-86{fill:#344df0;}.cls-103,.cls-87{fill:#f77940;}.cls-88{fill:#7032fa;}.cls-89{fill:#f0b938;}.cls-90{fill:#46e030;}.cls-91{fill:#f8fa0a;}.cls-92{fill:#ff7f0e;}.cls-93{fill:#7c62f0;}.cls-94{stroke:#fff;}.cls-95{font-size:24px;}.cls-101,.cls-104,.cls-113,.cls-95{fill:#fff;}.cls-101,.cls-104,.cls-95{font-family:MyriadPro-Regular, Myriad Pro;}.cls-96{letter-spacing:-0.01em;}.cls-97{letter-spacing:0em;}.cls-98{letter-spacing:0em;}.cls-99{letter-spacing:-0.01em;}.cls-100{stroke:#a01515;}.cls-101,.cls-104{font-size:16px;}.cls-101{letter-spacing:0em;}.cls-102{letter-spacing:0em;}.cls-103{stroke:#93472a;}.cls-105{stroke:#284c29;}.cls-106{letter-spacing:0em;}.cls-107{letter-spacing:-0.03em;}.cls-108{letter-spacing:0em;}.cls-109{stroke:#2a7c82;}.cls-110{stroke:#9b2785;}.cls-111{letter-spacing:-0.02em;}.cls-112{letter-spacing:0.02em;}.cls-113{stroke:#000;}</style></defs><g id="Layer_2" data-name="Layer 2"><g id="Layer_1-2" data-name="Layer 1"><rect class="cls-1" x="139.15" width="5.89" height="129.95"/><rect class="cls-1" x="139.15" y="135.84" width="5.89" height="127.84"/><rect class="cls-1" x="846.66" y="8.83" width="5.89" height="85.27"/><rect class="cls-1" x="846.66" y="99.98" width="5.89" height="82.05"/><rect class="cls-1" x="846.66" y="187.92" width="5.89" height="80.35"/><rect class="cls-1" x="139.15" y="269.56" width="5.89" height="79.81"/><rect class="cls-1" x="139.15" y="355.26" width="5.89" height="68.56"/><rect class="cls-1" x="139.15" y="429.71" width="5.89" height="68.43"/><rect class="cls-1" x="846.66" y="274.15" width="5.89" height="66.18"/><rect class="cls-1" x="846.66" y="346.22" width="5.89" height="62.27"/><rect class="cls-1" x="846.66" y="414.37" width="5.89" height="59.34"/><rect class="cls-1" x="846.66" y="479.6" width="5.89" height="53.2"/><rect class="cls-1" x="846.66" y="538.69" width="5.89" height="46.81"/><rect class="cls-1" x="846.66" y="591.38" width="5.89" height="43.29"/><rect class="cls-1" x="139.15" y="504.02" width="5.89" height="39.43"/><rect class="cls-1" x="139.15" y="549.34" width="5.89" height="37.13"/><rect class="cls-1" x="846.66" y="640.55" width="5.89" height="33.36"/><rect class="cls-1" x="139.15" y="592.35" width="5.89" height="20.91"/><rect class="cls-1" x="139.15" y="619.15" width="5.89" height="18.31"/><rect class="cls-1" x="139.15" y="643.34" width="5.89" height="9.66"/><rect class="cls-1" x="139.15" y="658.89" width="5.89" height="6.29"/><rect class="cls-1" x="139.15" y="671.07" width="5.89" height="5.76"/><rect class="cls-1" x="139.15" y="682.71" width="5.89" height="0.04"/><g class="cls-2"><path class="cls-3" d="M145,173.83c350.69,0,350.69,46.79,701.39,46.79"/></g><g class="cls-2"><path class="cls-4" d="M145,625.93c350.69,0,350.69-363.59,701.39-363.59"/></g><g class="cls-2"><path class="cls-5" d="M145,571.68C495.72,571.68,495.72,256,846.42,256"/></g><g class="cls-2"><path class="cls-6" d="M145,30.47c350.69,0,350.69,158.77,701.39,158.77"/></g><g class="cls-2"><path class="cls-7" d="M145,453.09c350.69,0,350.69-199.89,701.39-199.89"/></g><g class="cls-2"><path class="cls-8" d="M145,661.6c350.69,0,350.69-394.25,701.39-394.25"/></g><g class="cls-2"><path class="cls-9" d="M145,372.4c350.69,0,350.69-120.65,701.39-120.65"/></g><g class="cls-2"><path class="cls-10" d="M145,292.5C495.72,292.5,495.72,251,846.42,251"/></g><g class="cls-2"><path class="cls-11" d="M145,600.38c350.69,0,350.69-342.69,701.39-342.69"/></g><g class="cls-2"><path class="cls-12" d="M145,671.43c350.69,0,350.69-403.36,701.39-403.36"/></g><g class="cls-2"><path class="cls-13" d="M145,538c350.69,0,350.69-283.56,701.39-283.56"/></g><g class="cls-2"><path class="cls-14" d="M145,644.73c350.69,0,350.69-378,701.39-378"/></g><g class="cls-2"><path class="cls-15" d="M145,11.08c350.69,0,350.69,8.82,701.39,8.82"/></g><g class="cls-2"><path class="cls-16" d="M145,440.12C495.72,440.12,495.72,72,846.42,72"/></g><g class="cls-2"><path class="cls-17" d="M145,278.87c350.69,0,350.69-237,701.39-237"/></g><g class="cls-2"><path class="cls-18" d="M145,360.45c350.69,0,350.69-304,701.39-304"/></g><g class="cls-2"><path class="cls-19" d="M145,595.18c350.69,0,350.69-506.33,701.39-506.33"/></g><g class="cls-2"><path class="cls-20" d="M145,550.68c350.69,0,350.69-466,701.39-466"/></g><g class="cls-2"><path class="cls-21" d="M145,136.64c350.69,0,350.69-104.86,701.39-104.86"/></g><g class="cls-2"><path class="cls-14" d="M145,643.86c350.69,0,350.69-551,701.39-551"/></g><g class="cls-2"><path class="cls-13" d="M145,504.47c350.69,0,350.69-421.6,701.39-421.6"/></g><g class="cls-2"><path class="cls-22" d="M145,619.48C495.72,619.48,495.72,92,846.42,92"/></g><g class="cls-2"><path class="cls-8" d="M145,659.19c350.69,0,350.69-565.51,701.39-565.51"/></g><g class="cls-2"><path class="cls-12" d="M145,671.13C495.72,671.13,495.72,94,846.42,94"/></g><g class="cls-2"><path class="cls-23" d="M145,521.37c350.69,0,350.69-379.78,701.39-379.78"/></g><g class="cls-2"><path class="cls-24" d="M145,561.16c350.69,0,350.69-394,701.39-394"/></g><g class="cls-2"><path class="cls-25" d="M145,25.65c350.69,0,350.69,77.83,701.39,77.83"/></g><g class="cls-2"><path class="cls-26" d="M145,368.83c350.69,0,350.69-248.37,701.39-248.37"/></g><g class="cls-2"><path class="cls-27" d="M145,140.6c350.69,0,350.69-30.46,701.39-30.46"/></g><g class="cls-2"><path class="cls-28" d="M145,290.17c350.69,0,350.69-174.88,701.39-174.88"/></g><g class="cls-2"><path class="cls-29" d="M145,599C495.72,599,495.72,177.3,846.42,177.3"/></g><g class="cls-2"><path class="cls-30" d="M145,620.71c350.69,0,350.69-441.49,701.39-441.49"/></g><g class="cls-2"><path class="cls-31" d="M145,660.29c350.69,0,350.69-479.11,701.39-479.11"/></g><g class="cls-2"><path class="cls-32" d="M145,451.29c350.69,0,350.69-326.89,701.39-326.89"/></g><g class="cls-2"><path class="cls-14" d="M145,644.51c350.69,0,350.69-464.26,701.39-464.26"/></g><g class="cls-2"><path class="cls-12" d="M145,671.21c350.69,0,350.69-489.2,701.39-489.2"/></g><g class="cls-2"><path class="cls-33" d="M145,303.42c350.69,0,350.69-.62,701.39-.62"/></g><g class="cls-2"><path class="cls-34" d="M145,40.21c350.69,0,350.69,242.37,701.39,242.37"/></g><g class="cls-2"><path class="cls-35" d="M145,377.06c350.69,0,350.69-59.41,701.39-59.41"/></g><g class="cls-2"><path class="cls-36" d="M145,575.49C495.72,575.49,495.72,330,846.42,330"/></g><g class="cls-2"><path class="cls-37" d="M145,456.4c350.69,0,350.69-132.23,701.39-132.23"/></g><g class="cls-2"><path class="cls-38" d="M145,602.69c350.69,0,350.69-268.25,701.39-268.25"/></g><g class="cls-2"><path class="cls-39" d="M145,662.87c350.69,0,350.69-323.35,701.39-323.35"/></g><g class="cls-2"><path class="cls-40" d="M145,630.94c350.69,0,350.69-293.83,701.39-293.83"/></g><g class="cls-2"><path class="cls-41" d="M145,204.5c350.69,0,350.69,87.11,701.39,87.11"/></g><g class="cls-2"><path class="cls-42" d="M145,538.72c350.69,0,350.69-211.7,701.39-211.7"/></g><g class="cls-2"><path class="cls-14" d="M145,645.31c350.69,0,350.69-307,701.39-307"/></g><g class="cls-2"><path class="cls-12" d="M145,671.67c350.69,0,350.69-331.37,701.39-331.37"/></g><g class="cls-2"><path class="cls-43" d="M145,58.4C495.72,58.4,495.72,356,846.42,356"/></g><g class="cls-2"><path class="cls-44" d="M145,322.87c350.69,0,350.69,53.55,701.39,53.55"/></g><g class="cls-2"><path class="cls-45" d="M145,386.7c350.69,0,350.69,4,701.39,4"/></g><g class="cls-2"><path class="cls-46" d="M145,647.86c350.69,0,350.69-241.78,701.39-241.78"/></g><g class="cls-2"><path class="cls-47" d="M145,579.6c350.69,0,350.69-179.13,701.39-179.13"/></g><g class="cls-2"><path class="cls-48" d="M145,206c350.69,0,350.69,160.64,701.39,160.64"/></g><g class="cls-2"><path class="cls-49" d="M145,459.54c350.69,0,350.69-62.61,701.39-62.61"/></g><g class="cls-2"><path class="cls-50" d="M145,605.35c350.69,0,350.69-202.51,701.39-202.51"/></g><g class="cls-2"><path class="cls-13" d="M145,539.8c350.69,0,350.69-141.51,701.39-141.51"/></g><g class="cls-2"><path class="cls-22" d="M145,631.88c350.69,0,350.69-228.12,701.39-228.12"/></g><g class="cls-2"><path class="cls-8" d="M145,663.79c350.69,0,350.69-255.48,701.39-255.48"/></g><g class="cls-2"><path class="cls-51" d="M145,233.45c350.69,0,350.69,207.87,701.39,207.87"/></g><g class="cls-2"><path class="cls-52" d="M145,634.08c350.69,0,350.69-162.7,701.39-162.7"/></g><g class="cls-2"><path class="cls-53" d="M145,581.68c350.69,0,350.69-112.76,701.39-112.76"/></g><g class="cls-2"><path class="cls-54" d="M145,68.37c350.69,0,350.69,346.21,701.39,346.21"/></g><g class="cls-2"><path class="cls-9" d="M145,392.29c350.69,0,350.69,75.89,701.39,75.89"/></g><g class="cls-2"><path class="cls-8" d="M145,664.15c350.69,0,350.69-190.62,701.39-190.62"/></g><g class="cls-2"><path class="cls-11" d="M145,606.08c350.69,0,350.69-136.72,701.39-136.72"/></g><g class="cls-2"><path class="cls-10" d="M145,331.79c350.69,0,350.69,136.12,701.39,136.12"/></g><g class="cls-2"><path class="cls-55" d="M145,460.47c350.69,0,350.69,8,701.39,8"/></g><g class="cls-2"><path class="cls-13" d="M145,540.31c350.69,0,350.69-71.79,701.39-71.79"/></g><g class="cls-2"><path class="cls-14" d="M145,649.93c350.69,0,350.69-176.59,701.39-176.59"/></g><g class="cls-2"><path class="cls-56" d="M145,400.84c350.69,0,350.69,116.51,701.39,116.51"/></g><g class="cls-2"><path class="cls-57" d="M145,334.85C495.72,334.85,495.72,506,846.42,506"/></g><g class="cls-2"><path class="cls-58" d="M145,461.6c350.69,0,350.69,65.18,701.39,65.18"/></g><g class="cls-2"><path class="cls-59" d="M145,541.26c350.69,0,350.69-12.49,701.39-12.49"/></g><g class="cls-2"><path class="cls-60" d="M145,582.7c350.69,0,350.69-52.37,701.39-52.37"/></g><g class="cls-2"><path class="cls-14" d="M145,650.36c350.69,0,350.69-118.15,701.39-118.15"/></g><g class="cls-2"><path class="cls-11" d="M145,606.49c350.69,0,350.69-75.18,701.39-75.18"/></g><g class="cls-2"><path class="cls-61" d="M145,260.24c350.69,0,350.69,242.52,701.39,242.52"/></g><g class="cls-2"><path class="cls-8" d="M145,664.41c350.69,0,350.69-131.7,701.39-131.7"/></g><g class="cls-2"><path class="cls-22" d="M145,636.1c350.69,0,350.69-104.38,701.39-104.38"/></g><g class="cls-2"><path class="cls-12" d="M145,671.7c350.69,0,350.69-138.9,701.39-138.9"/></g><g class="cls-2"><path class="cls-62" d="M145,472.79c350.69,0,350.69,101.59,701.39,101.59"/></g><g class="cls-2"><path class="cls-63" d="M145,100.25c350.69,0,350.69,447.21,701.39,447.21"/></g><g class="cls-2"><path class="cls-64" d="M145,412.06c350.69,0,350.69,149.34,701.39,149.34"/></g><g class="cls-2"><path class="cls-65" d="M145,338.91c350.69,0,350.69,218.56,701.39,218.56"/></g><g class="cls-2"><path class="cls-11" d="M145,607.05c350.69,0,350.69-21.92,701.39-21.92"/></g><g class="cls-2"><path class="cls-53" d="M145,583.53c350.69,0,350.69,1.18,701.39,1.18"/></g><g class="cls-2"><path class="cls-61" d="M145,260.58c350.69,0,350.69,295.73,701.39,295.73"/></g><g class="cls-2"><path class="cls-66" d="M145,636.2c350.69,0,350.69-50.82,701.39-50.82"/></g><g class="cls-2"><path class="cls-13" d="M145,542.19c350.69,0,350.69,42.31,701.39,42.31"/></g><g class="cls-2"><path class="cls-8" d="M145,664.5c350.69,0,350.69-79,701.39-79"/></g><g class="cls-2"><path class="cls-12" d="M145,671.72c350.69,0,350.69-86.24,701.39-86.24"/></g><g class="cls-2"><path class="cls-14" d="M145,650.8c350.69,0,350.69-65.38,701.39-65.38"/></g><g class="cls-2"><path class="cls-67" d="M145,118.39c350.69,0,350.69,482.36,701.39,482.36"/></g><g class="cls-2"><path class="cls-68" d="M145,343.59c350.69,0,350.69,270.9,701.39,270.9"/></g><g class="cls-2"><path class="cls-69" d="M145,418c350.69,0,350.69,203.18,701.39,203.18"/></g><g class="cls-2"><path class="cls-70" d="M145,485c350.69,0,350.69,141.34,701.39,141.34"/></g><g class="cls-2"><path class="cls-71" d="M145,584.92c350.69,0,350.69,45.73,701.39,45.73"/></g><g class="cls-2"><path class="cls-11" d="M145,607.86c350.69,0,350.69,24.57,701.39,24.57"/></g><g class="cls-2"><path class="cls-13" d="M145,542.71c350.69,0,350.69,86.23,701.39,86.23"/></g><g class="cls-2"><path class="cls-14" d="M145,651.27c350.69,0,350.69-17.49,701.39-17.49"/></g><g class="cls-2"><path class="cls-61" d="M145,261.05c350.69,0,350.69,349.44,701.39,349.44"/></g><g class="cls-2"><path class="cls-8" d="M145,664.72c350.69,0,350.69-30.28,701.39-30.28"/></g><g class="cls-2"><path class="cls-22" d="M145,636.39c350.69,0,350.69-3.23,701.39-3.23"/></g><g class="cls-2"><path class="cls-12" d="M145,671.75c350.69,0,350.69-37.1,701.39-37.1"/></g><g class="cls-2"><path class="cls-72" d="M145,492.62c350.69,0,350.69,162.83,701.39,162.83"/></g><g class="cls-2"><path class="cls-73" d="M145,674.3c350.69,0,350.69-2.95,701.39-2.95"/></g><g class="cls-2"><path class="cls-74" d="M145,610.84c350.69,0,350.69,53.12,701.39,53.12"/></g><g class="cls-2"><path class="cls-75" d="M145,422.44c350.69,0,350.69,226.11,701.39,226.11"/></g><g class="cls-2"><path class="cls-76" d="M145,262.55c350.69,0,350.69,381.33,701.39,381.33"/></g><g class="cls-2"><path class="cls-77" d="M145,128.85c350.69,0,350.69,512.8,701.39,512.8"/></g><g class="cls-2"><path class="cls-78" d="M145,348.29c350.69,0,350.69,297.8,701.39,297.8"/></g><g class="cls-2"><path class="cls-79" d="M145,652.36c350.69,0,350.69,15.56,701.39,15.56"/></g><g class="cls-2"><path class="cls-22" d="M145,637c350.69,0,350.69,29.83,701.39,29.83"/></g><g class="cls-2"><path class="cls-53" d="M145,586.3c350.69,0,350.69,75.07,701.39,75.07"/></g><g class="cls-2"><path class="cls-8" d="M145,665.05c350.69,0,350.69,3.65,701.39,3.65"/></g><g class="cls-2"><path class="cls-13" d="M145,543.33c350.69,0,350.69,117.75,701.39,117.75"/></g><g class="cls-2"><path class="cls-80" d="M145,682.73c350.69,0,350.69-8.83,701.39-8.83"/></g><g class="cls-2"><circle class="cls-81" cx="87.24" cy="64.98" r="33.25"/></g><g class="cls-2"><circle class="cls-82" cx="87.24" cy="199.76" r="23.75"/></g><g class="cls-2"><circle class="cls-83" cx="87.24" cy="309.47" r="23.75"/></g><g class="cls-2"><circle class="cls-84" cx="87.24" cy="389.54" r="33.25"/></g><g class="cls-2"><circle class="cls-85" cx="87.24" cy="463.92" r="23.75"/></g><g class="cls-2"><circle class="cls-86" cx="87.24" cy="523.74" r="19"/></g><g class="cls-2"><circle class="cls-87" cx="87.24" cy="567.9" r="38"/></g><g class="cls-2"><circle class="cls-88" cx="87.24" cy="602.81" r="23.75"/></g><g class="cls-2"><circle class="cls-89" cx="87.24" cy="628.3" r="23.75"/></g><g class="cls-2"><circle class="cls-90" cx="87.24" cy="648.17" r="14.25"/></g><g class="cls-2"><circle class="cls-91" cx="87.24" cy="662.04" r="28.5"/></g><g class="cls-2"><circle class="cls-92" cx="87.24" cy="673.94" r="14.25"/></g><g class="cls-2"><circle class="cls-93" cx="87.24" cy="682.73" r="14.25"/></g><line class="cls-94" x1="32.53" x2="32.53" y2="682.75"/><text class="cls-95" transform="translate(20.09 528.42) rotate(-90)">PIB per cápita p<tspan class="cls-96" x="155.06" y="0">r</tspan><tspan class="cls-97" x="162.67" y="0">omedio por sub</tspan><tspan class="cls-96" x="321.45" y="0">r</tspan><tspan class="cls-98" x="329.06" y="0">e</tspan><tspan class="cls-99" x="341.08" y="0">g</tspan><tspan x="354.35" y="0">ión</tspan></text><path id="path222" class="cls-100" d="M919.6,287.1l-3.53,5,3.36-.62,3.62,0-.86,3.71-3,4,3.41.29.27.47,2.93,5.21,2.26.71,2,4.95.94,1.69,4,.82-.4,2.73L933,317.32l1.31,2.18-3,2.19-4.42,0-5.61,1.15-1.54-.82-2.18,1.95-3.05-.47L912.21,325l-1.75-.83,4.84-4.38,3-.91h0l-5.15-.7-.93-1.68,3.44-1.32-1.8-2.3.62-2.82,4.91.39h0l.49-2.51-2.21-2.69-.05-.06-4-.78-.78-1.19,1.2-2-1.09-1.23-1.78,2.1-.19-4.29-1.66-2.3,1.19-4.7,2.57-3.75,2.63.37,4-.39"/><path id="path220" class="cls-100" d="M910.84,305.49l-1.77,3-2.49-.9-2,.06.68-2.34-.68-2.36,2.76-.18,3.54,2.72"/><path id="path178" class="cls-100" d="M917.25,25.12l.08,2.26,4.42,1.35,0,2.05,4.45-1.09,2.46-1.58,4.94,2.28,2.06,1.84,1,2.91-1.22,1.52,1.59,2,1.08,3-.34,1.93,1.8,3.57-2,.58-1.15-.64-1.1,1.06-3.14,1.07-1.62,1.38-3.18,1.2.77,1.63.46,2.31,2.23,1.31,2.47,2.33-1.54,2.49-1.57.69.62,3.49-.41.91-1.36-1.1-2.1-.16-3.13,1L920,66.49l-.63,1.41-2.21-1.48-1.32.29-4.68-1.63-.9,1.16-3.72,0,.55-3.82,2.21-3.7-6.3-1-2.06-1.43.25-2.39-.88-1.24.5-3.73-.73-5.84h2.62l1.11-2.12,1.09-5.19-.82-1.93.86-1.22,3.65-.31.81,1.26,3-2.83-1-2.17-.2-3.3,3.31.77,2.8-.89"/><text class="cls-101" transform="translate(888.33 87.67)">A<tspan class="cls-102" x="9.74" y="0">lemania</tspan></text><path id="path552" class="cls-103" d="M921.46,111l.3,1.13.51.35,1.15.12,1.69.33,1.6.63,1.34-.27,2,.53.55,0,1.47-.57,1.56.73,1.61.79,1.34.67,1.28.64.16.53.39.19-.1.2.44.06.33-.21.08.48.33.31H940l.25.24-.21.36,1.73.92.35,1.78.33,1.69-.48,1.14-.78,1.06-.37.67,0,.2.18.27.57.3h.41l1.92-1,1.7-.3,2.16-1,0-.2-.15-.58-.27-.38.75-.31h3.14l.53-.75.2-.16,1.75-1.4.74-.36,2.52,0h3l.17-.48.53-.1.7-.31.58-.9.51-1.55,1.26-1.51.55.53,1.11-.34.73.58v2.71l1.08,1.12.29.64-1.77.95-1.7.67-1.74.57-.88,1.15-.28.44v1l.54,1,.69,0-.18-.69.5.42-.13.54-1.12.31-.79,0-1.23.33-.71.1-1,.09-1.38.55,2.42-.36.49.36-2.31.57H955.9L956,128l-.51.52.49.09-.36,1.35-1.2,1.43-.12-.48-.37-.1-.54-.46.35,1,.41.33,0,.7-.53.72-.93,1.46-.15-.07.51-1.25-.84-.7L952,131l-.31.8L952,133l-1.09-.29,1.13.6.08,1.74.47.13.17.63.23,1.81-1,1.34-1.71.53-1.08,1.05-.83.12-.84.65-.23.6L945.45,143l-.93.84-.78,1-.25,1.24.29,1.22.55,1.48.74,1.22v.75l.78,2-.05,1.15-.08.66-.41,1-.49.21-.82-.2-.26-.75-.62-.39-.88-1.46-.77-1.31-.25-.67.34-1.14-.46-.95-1.29-1.45-.64-.27-1.67.79-.3-.09-.8-.81-1-.43-1.86.22-1.47-.19-1.26.12-.68.27.29.46,0,.7.35.35-.32.22-.61-.25-.62.33-1.2-.06-1.23-.91-1.45.21-1.2-.4-1,.12-1.39.41-1.5,1.28-1.64.75-.91.82-.38.77v1.18l.08.81.31.58-.64.05-1.17-.37-1.29-.53-.47-.8-.36-1.2-1-1-.58-1-.83-1.19-1.16-.69-1.35,0-1,1.37-1.37-.52-.86-.52-.41-1-.55-.92-1-.76-.85-.56-.6-.62h-2.86v.72H898l-3.29,0-3.77-1.24-2.5-.86.16-.35-2.1.2-1.88.13-.28-.9-1.07-1-.77-.22-.18-.51-.93-.09-.59-.48-1.53-.18-.43-.29-.2-1-1.6-1.81-1.38-2.54.06-.43-.73-.6-1.28-1.55-.22-1.52-.89-1,.37-1.56-.06-1.63-.53-1.47.65-1.81.2-1.77.2-1.78-.3-2.67-.52-1.72-.48-.94.2-.4,2.39.69.88,1.91.41-.54-.27-1.65-.56-1.68H920.9V111h.56"/><text class="cls-104" transform="translate(868.86 173.83)">Estados Unidos</text><path id="path156" class="cls-105" d="M949,204l2.18.5,1.48,1.1.5,1.45H955l1.08-.6,2.07-.46-.66,1.38L957,208l-.43,1.66-.85,1.45-1.51-.26-1.08.53.33,1.26-.18,1.73-.64,0v.74l-.81-.86-.5.82-1.93.62.2.76-1.08,0L948,216l-.86,1-1.38.76-1,.92-1.74.41-.93.66-1.34.38.66-.65-.26-.55,1-1-.66-.74-1.09.5-1.41,1-.77.91-1.23.07-.64.66.66.94,1,.23,0,.62,1,.41,1.4-1,1.11.54.81,0,.2.72-1.77.39-.59.74-1.21.69-.64,1,1.34.75.49,1.33.76,1.23.85,1,0,1-.78.36.3.71.73.4-.19,1.07-.32,1-.69.11-.92,1.41-1,1.69-1.16,1.53L936,240.43l-1.74,1.06-1.41.15-.77.56-.43-.41-.71.63-1.75.63-1.32.19-.43,1.33-.69.07-.33-.91.3-.48-1.68-.41-.59.21-1.26-.33-.6-.51.2-.73-1.15-.23-.6-.48-1.07.68-1.21.14h-1l-.67.31-.65.18.19,1.44-.67,0-.11-.3,0-.52-.92.37-.54-.23-.93-.48.37-1.05L913,241l-.29-1.17-1.32.21.15-1.52,1.18-1.07,0-1.06,0-1-.54-.31-.42-.77-.73.1-1.35-.19.42-.55-.59-.82-.89.56-1.05-.33-1.44.84-1.14,1-1,.16-.54-.35-.67,0-.89-.3-.68.33-.82,1-.11-1-.76.27-1.46-.13-1.42-.29-1-.58-1-.25-.42-.63-.71-.19-1.26-.86-1-.4-.52.31L889,231l-1.23-.84-.35-1.47.9.18,0-.69-.5-.68.13-1.11-1.35-1.59-2.06-.56-.37-1-.92-.65-.22-.4-.19-.79,0-.54-.76-.32-.41.14-.32-1.3.36-.32-.17-.33,1.19-.68.87-.27,1.32.19.47-.91,1.61-.17.45-.57,2-.79.17-.32-.1-.83.86-.38-1.12-2.56,2.47-.59.64-.34.91-2.7,2.48.5.7-.69,0-1.53,1-.15,1-1,.49-.13.32,1.08,1.06.82,1.78.58.86,1.22-.48,1.76.45.65,1.49.26,1.69.2,1.51.93.77.16.57,1.36.73.86,1.38,0,2.59.32,1.66-.2,1.24.22,1.85.88H920l.55.44,1.46-.77,2-.5,1.88-.06,1.46-.51.9-.78.87-.49-.2-.49-.4-.57.66-1,.7.13,1.29.3,1.25-.79,1.9-.58.92-1,.88-.43,1.82-.2,1,.17.13-.54L938,207.15l-1-.49-1,.56-1.23-.24-.71.2-.32-.63.88-1.54.61-1.18,1.5.59,1.77-1v-.69l1.13-1.69.69-.52v-.89l-.69-.38,1-.81,1.56-.3,1.66,0,1.87.48,1.1.6.77,1.63.47.69.44,1L949,204"/><text class="cls-104" transform="translate(900.55 268.07)">China</text><text class="cls-104" transform="translate(878.66 340.3)"><tspan class="cls-106">R</tspan><tspan x="8.67" y="0">eino Unido</tspan></text><path id="path216" class="cls-100" d="M925.89,360.26l2.32,2,1.71-.33,2.91,1.9.74.36,1-.09,1.57,1.09,4.79.76-1.68,2.81-.42,2.9-.92.7-1.51-.38.11,1L934,375.25l0,1.81,1.58-.62,1.15,1.75-.14,1.13,1,1.49L936.4,382l.86,3.05,1.8.49-.38,1.7-3,2.2-6.55-1.05-4.85,1.26-.38,2.32-3.85.5-3.74-1.74-1.21.83L909,389.81l-1.32-1.5,1.72-2.34.63-7.87-3.43-4.22-2.45-2L899,370.27l-.34-3,4.31-.9,5.58,1.06-1.05-4.68,3.14,1.78,7.74-3.24,1-3.44,2.9-.85.48,1.48,1.55.07,1.54,1.69"/><text class="cls-104" transform="translate(895.92 408.48)"><tspan class="cls-107">F</tspan><tspan class="cls-108" x="7.38" y="0">r</tspan><tspan x="12.53" y="0">ancia</tspan></text><path id="path154" class="cls-105" d="M925.44,445.22l-9.36,5.17-8.88-3.34-.31-9.27,5.33-4.9,11.84-3,6.23.26,2.42,4.13L928,439l-2.51,6.23"/><text class="cls-104" transform="translate(881.94 467.91)">Hong Kong</text><path id="path196" class="cls-109" d="M901.7,498.5l.16-2.54-1.26-1.56,4.37-2.61,3.77.66,4.15,0,3.29.62,2.56-.19,5,.12,1.24,1.4,5.68,1.64,1.12-.78,3.48,1.62,3.58-.46.17,2.07-2.93,2.37-4,.74-.27,1.19-1.9,1.95-1.19,2.84,1.2,2-1.79,1.55-.66,2.23-2.34.69L923,516.62l-3.92.06-2.95-.07-1.93,1.2L913,519.09l-1.51-.28-1.15-1.14-.87-2-2.88-.53-.26-1.13,1.14-1.29.43-.94-1.07-1,.85-2.28-1.23-2.08,1.33-.29.12-1.65.51-.52,0-2.75,1.42-1-.86-1.78-1.8-.12-.53.45h-1.82l-.78-1.75-1.26.53-1.12.9"/><text class="cls-104" transform="translate(895.99 532.8)">España</text><path id="path426" class="cls-110" d="M906.09,564l-1.39-2.77.26-1.5-.84-2.35-1.23-1.57,1-1.18-.8-2.27,2.32-1.31,5.31-2.08,4.27-1.53,3.39.76.26,1.11,3.27,0,4.19.51,6.24-.06,1.74.48.82,1.38.15,2,.94,1.69,0,1.76-2,.89,1,2L935,562l1.71,3.77-.36,1.21-1.69.5L931.57,571l.87,1.89-.74-.24L928.48,571l-2.45.6-1.6-.43-2,.9-1.71-1.5-1.4.58-.19-.26-1.56-2.09-2.53-.26-.32-1.33-2.33-.48-.51,1.1L910,567l.21-1.18-2.54-.38L906.09,564"/><text class="cls-104" transform="translate(894.9 584.92)"><tspan class="cls-111">P</tspan><tspan x="8.11" y="0">olonia</tspan></text><path id="path296" class="cls-109" d="M919.26,596.14l3.23.7-.24,1.35.54,1.15L921,599l-1.84,1,.12,1.33L919,602l.74,1.36,2.12,1.34,1.14,2.18,2.52,2.12,1.77,0,.56.58-.64.52,2,.94,1.66.78,1.94,1.34.24.49-.43.91-1.25-1.19-2-.43-.95,1.66,1.63.95-.26,1.33-1,.15-1.21,2.17-.94.2v-.77l.46-1.36.49-.54-.88-1.48-.7-1.3-.94-.32-.66-1.11-1.46-.47-1-1-1.68-.17-1.76-1.17-2.08-1.7L915,606.44l-.7-2.61-1.13-.31-1.84-.88-1,.36L909,604.23l-.94.2.26-1.16-1.23-.34-.59-2.07.79-.82-.67-1,.1-.76,1,.58,1.09-.13,1.27-.92.4.43,1.07-.09L912,597l1.68.34,1-.46.18-1.12,1.37.39.26-.52,2.24-.48.51,1"/><text class="cls-104" transform="translate(903.64 634.44)"><tspan class="cls-112">I</tspan><tspan x="4.08" y="0">talia</tspan></text><path id="path460" class="cls-113" d="M921,643.41l.09.35.32-.17h1l.79.34.28.26-.09.35-.39.2-.92.38-.26.19.43.09.52.17.32-.12.18.41.15-.17.56-.1,1.12.11.09.3,1.46.1,0-.5.74.12H928l.57.34.16.41-.21.27.44.49.55.25.34-.65.56.28.6-.17.67.19.26-.17.57.08-.25-.58.46-.27,3.16.41.3.37.92.47,1.41-.11.7.1.29.25,0,.44.43.17.47-.12.62,0,.66.12.66-.07.61.53.44-.19-.29-.38.16-.27,1.11.17.73,0,1,.28.49.26v2.26h0l-.45.24-.46,0,.32.29.21.44.16.14,0,.22-.09.14-.65-.12-1,.39-.31.06-.54.37-.51.31-.13.23-.5-.35-.91.39-.16-.18-.33.21-.47-.07-.11.33-.42.48v.2l.4.1,0,.7-.33,0-.15.4.15.2-.61.23-.12.53-.52.11-.11.46-.5.42-.13-.31-.15-.66-.2-1,.17-.66.29-.28,0-.23.55-.11.62-.62.6-.52.63-.4.29-.73-.43,0-.21.43-.89.56-.28-.63-.91.18-.87.85.28.3L937,654l-.54,0,0-.36-.55-.07-.43.24-1.07-.08-1.15.15-1.13,1L930.81,656l.56,0,.17.29.34.11.22-.23.39,0,.5.5v.39l-.27.45,0,.52-.16.7-.53.62-.11.29-.48.49-.47.48-.23.24-.46.24H930l-.22-.2-.47.29-.06.14,0-.07v-.21h.18l.05-.48-.09-.36.3-.14.42.07.24-.41.12-.46.14-.16.18-.38-.58.12-.3.17h-.53l-.15-.4-.41-.31-.61-.14-.13-.43-.12-.28-.13-.19-.22-.45-.31-.17-.52-.14-.46,0-.44.08-.29.22.19.11v.25l-.2.15-.31.47v.19l-.49.28-.42-.17-.42,0-.18-.15-.21,0-.52.31-.46.08-.32.1-.44-.07h-.32l-.22-.23-.34-.21-.35,0-.44,0-.33.08-.5-.18-.07-.33-.41-.12-.32-.05-.39-.19-.36.47.14.26-.34.3-.5-.11h-.35l-.24-.21h-.36l-.31-.14-.53.21-.67.38-.37.07-.13,0-.19-.27-.45.06-.15-.19-.24-.08-.17-.26-.19-.08-.51.12-.48-.26-.19.23-.78-1.14-.44-.36.12-.14-.87.43-.34,0,0-.25-.45-.16-.37.11-.11-.48-.62-.1-.32.19-.87.18-.18.11-1.31.16-.16.16.26.31-.34.12.07.12-.34.22.57.31-.09.21-.49,0-.1.13-.45-.23h-.56l-.37.19-.41-.18-.77-.31h-.55l-.72.49-.05.32-.36-.26-.27.49.1.08-.2.33.29.29h.26l.23.29,0,.22.18.06-.16.25-.34.07-.35.43.32.39,0,.28.39.48-.21.16-.06.1-.16,0-.24-.24h-.1l-.22-.1-.1-.16-.33-.09-.21.06-.06-.07-.48-.2-.51-.06-.3-.07,0,0-.45-.35-.4-.16-.3-.24.25-.07.29-.35-.19-.17.51-.17v-.09l-.31.07v-.19l.18-.12.34,0,.06-.15-.08-.24.14-.22v-.13l-.52-.14h-.2l-.22-.2-.27.06-.44-.15v-.09l-.12-.19-.28,0,0-.14.09-.09-.22-.26-.37,0-.1,0-.09.1-.13,0-.09-.29-.08-.15.07,0h.28l.14-.1-.11-.12-.23-.08,0-.08-.14-.09-.22-.3.07-.13,0-.22-.34-.11-.19,0,0-.11-.37-.12-.11-.28,0-.24-.17-.11.15-.15-.1-.46.25-.28,0-.09.39-.28-.36-.24.75-.65.32-.3.13-.27-.51-.36.14-.35-.32-.4.24-.48-.41-.63.32-.43-.53-.39,0-.41.28,0,.6-.24.36-.21.57.36,1,.14,1.32.66.27.27,0,.38-.39.3-.57.15-1.57-.43-.25.07.57.41,0,.26,0,.56.45.16.28.14,0-.26-.21-.23.22-.21.85.34.29-.13-.23-.4.82-.55.32,0,.32.2.21-.39-.29-.34.17-.34-.26-.36,1,.19.2.32-.44.07v.32l.27.19.55-.12.08-.36.73-.28,1.22-.5.27,0-.35.36.44.06.25-.2.65,0,.52-.24.4.35.4-.39-.37-.34.18-.2,1,.18.48.19,1.27.67.23-.31-.35-.31v-.12l-.42-.06.11-.28-.18-.48,0-.19.65-.56.23-.58.26-.13.93.17.07.36-.33.5.22.2.11.43-.08.82.39.36-.15.38-.69.81.4.08.14-.2.38-.15.1-.28.3-.27-.2-.33.16-.38-.38,0-.09-.33.28-.61-.45-.5.62-.42-.08-.45.18,0,.18.36-.14.6.38.11-.16-.45.58-.24.73,0,.65.36-.31-.52,0-.69.61-.13.84,0,.76-.09-.29-.34.41-.44.4,0,.68-.34.93-.09.11-.19.92-.06.29.15.78-.37.65,0,.09-.31.34-.3.82-.29.6.23-.47.18.79.1"/><text class="cls-104" transform="translate(902.19 672.82)">Rusia</text></g></g></svg>