<svg xmlns="http://www.w3.org/2000/svg" viewBox="0 0 531.47 612.58"><defs><style>.cls-1{fill:#f4f4f4;opacity:0.37;}.cls-2{fill:#6f78fa;stroke:#4e58ad;}.cls-3{font-size:22.05px;fill:#f7f7f7;font-family:MyriadPro-Regular, Myriad Pro;}.cls-4{letter-spacing:-0.01em;}.cls-5{letter-spacing:0em;}.cls-6{fill:#f05454;stroke:#a01515;}.cls-7{fill:#fa3ccc;stroke:#9b2785;}.cls-8{letter-spacing:-0.01em;}.cls-9{letter-spacing:-0.01em;}.cls-10{letter-spacing:0em;}.cls-11{letter-spacing:-0.01em;}.cls-12{fill:#f0b938;stroke:#916d24;}.cls-13{letter-spacing:0em;}.cls-14{fill:#43a34c;stroke:#284c29;}.cls-15{fill:#344df0;stroke:#21338e;}.cls-16{letter-spacing:0em;}.cls-17{fill:#ff7f0e;stroke:#b7570f;}.cls-18{letter-spacing:-0.01em;}.cls-19{letter-spacing:0em;}.cls-20{letter-spacing:-0.01em;}.cls-21{fill:#7032fa;stroke:#3f2291;}.cls-22{fill:#a344f0;stroke:#6a2fa3;}.cls-23{letter-spacing:0.02em;}.cls-24{fill:#7c62f0;stroke:#413887;}.cls-25{letter-spacing:-0.01em;}.cls-26{letter-spacing:0em;}.cls-27{letter-spacing:-0.01em;}.cls-28{letter-spacing:0em;}.cls-29{letter-spacing:-0.01em;}.cls-30{fill:#47cfe0;stroke:#2a7c82;}.cls-31{fill:#f77940;stroke:#93472a;}.cls-32{fill:#46e030;stroke:#2a841a;}</style></defs><g id="Layer_2" data-name="Layer 2"><g id="Layer_1-2" data-name="Layer 1"><rect class="cls-1" width="531.47" height="612.58" rx="29.95"/><path id="path580" class="cls-2" d="M254,498.75l-.39-.08-.25.09-.36-.12h-.3l-.47-.34-.57-.11-.22-.48v-.26l-.32-.08-.84-.81-.23-.43-.15-.13-.28-.58.82.08.24.08.25,0,.41-.47.65-.6.26-.06.09-.25.42-.29.56-.1,0,.27H254l.34.15.16.18.35.05.39.24v.92l-.15.51,0,.55.12.22-.08.44-.11.07-.2.53-.78.85"/><path id="path10" class="cls-2" d="M243,486.85l.18.53.21.43.17.23.28.37.49-.05.25-.11.41.11.11-.18.18-.42.46,0,0-.12h.38l-.07.25h.9v.45l.15.27-.1.43.05.45.25.26,0,.86.18-.07.32,0,.46-.11.34,0,.08.23-.09.35.13.33-.11.27.06.25h-1.54l0,2.31.5.6.48.46-1.36.3-1.79-.11-.51-.35-3,0-.11.05-.44-.33-.48,0-.45.13-.35.14-.07-.46.1-.64.26-.67,0-.31.24-.66.18-.29.43-.47.23-.33.08-.53,0-.41-.22-.25-.2-.44-.18-.43,0-.15.23-.28-.23-.7-.15-.47-.37-.46L240,487l.31-.1h.21l.26-.08H243"/><path id="path56" class="cls-2" d="M232.9,478.21l-.61.08-.18-.49,0-1.65L232,476l0-.36-.26-.25-.22-.21.09-.38.26-.08.15-.31.36-.07.16-.22.25-.21H233l.57.42,0,.23.17.43-.15.29.08.19-.36.45-.23.22-.14.45,0,.46,0,1.15"/><path id="path58" class="cls-2" d="M228.82,475.79l-.51-.19-.35,0-.26.18-.33-.15-.13-.24-.33-.16,0-.41.2-.31v-.24l.58-.6.11-.5.2-.17.36.09.31-.14.1-.19.58-.32.14-.23.69-.3.41-.11.18.14h.47l-.05.35.1.33.41.48,0,.35.86.16,0,.49-.16.22-.36.07-.15.31-.26.08h-.65l-.34-.06-.24.12-.32-.06-1.29,0,0,.41.11.54"/><path id="path84" class="cls-2" d="M249.88,496l.15.13.23.43.84.81.32.08v.26l.22.48.57.11.47.34-1.05.55-.66.56-.25.5-.22.28-.4.06L250,501l-.08.23-.47.18-.6,0-.36-.21-.31-.09-.36.17-.18.37-.35.22-.37.35-.53.07-.16-.26.06-.47-.44-.72-.19-.11v-2.19l.73,0,0-2.64.55,0,1.14-.26.28.31.47-.29h.23l.41-.17.14.06.28.58"/><path id="path158" class="cls-2" d="M228.79,479.11h-.33l-.52-.14h-.47l-.88.13-.51.21-.74.26-.14,0,.06-.59.07-.09,0-.28-.32-.3-.23-.05-.22-.19.16-.32-.07-.34,0-.21h.12l.05-.32-.06-.13.07-.1.27-.09-.18-.57-.17-.3.06-.24.15-.06.09-.06.21.1h.57l.14-.21h.12l.22-.08.11.31.17-.09.31-.11.33.16.13.24.33.15.26-.18.35,0,.51.19.19,1-.31.6-.19.8.32.62,0,.28"/><path id="path160" class="cls-2" d="M240.58,481.05l-.09,0-.44.09-.45-.09-.35.05-1.2,0,.1-.56-.29-.47-.33-.12-.15-.32-.19-.11v-.19l.19-.51.35-.69H238l.44-.42h.28l.42.29.51-.24.07-.3.16-.28.12-.37.39-.29.15-.5.16-.16.1-.38.2-.45.62-.56,0-.24.08-.13-.29-.29,0-.23.21,0,.3.46,0,.48,0,.48.4.65h-.41l-.21.06-.34-.08-.16.34.44.42.32.12.1.3.24.49-.12.2-.37.72-.18.13-.06.55.08.3-.06.22.35.37.06.25.27.37.34.23,0,.32.07.21-.05.38-.59-.16-.6-.19-.93,0"/><path id="path162" class="cls-2" d="M253.72,480.17l-.05.83.3.1-.24.25-.28.19-.29.37-.15.33,0,.57-.17.27v.54l-.21.2,0,.42-.1.05-.07.39.19.33,0,.86.14.65-.08.37.15.42.43.4.4.9-.29-.08-1,.13-.2.08-.21.46.17.31-.13.86-.09.72.2.13.51.28.21-.13.06.77h-.57l-.3-.4-.27-.31-.57-.1L251,491l-.45.23-.59-.1-.25-.33-.47-.06-.35,0,0-.23-.25,0-.34,0-.46.11-.32,0-.18.07,0-.86-.25-.26L247,489l.1-.43-.15-.27v-.45h-.9l.07-.25h-.38l0,.12-.46,0-.18.42-.11.18-.41-.11-.25.11-.49.05-.28-.37-.17-.23-.21-.43-.18-.53H240.8l-.26.08h-.21l-.31.1-.1-.22.19-.08,0-.31.12-.18.27-.15.2.07.25-.27h.4l0,.2.28.13.43-.45.43-.34.19-.23,0-.59.32-.69.34-.36.49-.35L244,483v-.27l.12-.24,0-.4.09-.64.14-.44.22-.38.05-.43.06-.5.29-.36.4-.23.61.25.47.26.54.07.55.14.22-.43.1-.06.34.07L249,479l.29.15.24,0,.11-.18.27-.06.56.08h.47l.25-.07.45.59.33.08.2-.12.34.05.41-.15.18.3.65.48"/><path id="path180" class="cls-2" d="M262.78,473.58l.17.23,0,.3-.42.17.31.2-.27.38-.16-.13-.18.06-.41,0v-.22l-.06-.19L262,474l.26-.32.31.06.23-.18"/><path id="path194" class="cls-2" d="M262.24,473.7l-.26-.24-.3-.42-.33-.23-.19-.25-.64-.29H260l-.18-.15-.43.17L259,472l-.23.54-.86-.15-.08-.29.32-1.07.07-.49.23-.22.55-.12.37-.42.43.85.21.67.4.35,1,.69.41.41.4.42.23.25.37.21-.23.18-.31-.06"/><path id="path200" class="cls-2" d="M259,472l.45.33.43-.17.18.15h.51l.64.29.19.25.33.23.3.42.26.24L262,474l-.25.34.06.19v.22l.41,0,.18-.06.16.13-.16.26.27.39.28.35.28.25,2.42.85h.62l-2.09,2.14-1,0-.66.5h-.48l-.2.23h-.5l-.3-.25-.68.3-.22.3-.49-.06-.16-.08-.18,0h-.23l-.94-.6h-.51l-.26-.24v-.4l-.38-.12-.44-.77-.34-.17-.12-.28-.38-.35-.45-.05.25-.41.39,0,.11-.22v-.64l.22-.75.35-.21.07-.29L257,474l.45-.36.3-.71.12-.62.86.15L259,472"/><path id="path218" class="cls-2" d="M239.11,485.49l-.76-.71-.48-.59-.45-.74,0-.23.16-.23.18-.52.15-.53.25,0h1.08v-.85l.35-.05.45.09.44-.09.09,0-.05.31.2.37.55-.06.19.14-.32.83.35.42.08.55-.09.47-.23.34-.65,0-.4-.34-.06.31-.5.09-.25.18.28.47-.57.39"/><path id="path228" class="cls-2" d="M224.66,477.19l-.21,0-.15.29h-.21l-.14-.15L224,477l-.31-.43-.19.08h-.16l-.2,0v-.26l-.11-.19,0-.21-.16-.3-.21-.25h-.59l-.17.13-.21,0-.12.15-.09.2-.39.32-.33-.43-.28-.28-.19-.09-.19-.15-.08-.31-.11-.16-.22-.12.33-.35h.23l.19-.12h.16l.12-.09-.06-.24.08-.08v-.24h.36l.53.18.16,0,.06-.08.4.06.11,0,0,.26h.12l.19-.09.13,0,.2.18.32.06.2-.15.24-.1.18-.1.15,0,.16.16.09.2.3.3-.15.18,0,.24.16-.07.09.08,0,.21.23.21-.15.06-.06.24.17.3.18.57-.27.09-.07.1.06.13-.05.32h-.12"/><path id="path232" class="cls-2" d="M219.71,474.78l-.39-.3-.31-.05-.17-.2v-.11l-.22-.15-.05-.16.39-.12.25,0,.19-.08,1.37,0v.24l-.08.08.06.24-.12.09h-.16l-.19.12H220l-.33.35"/><path id="path234" class="cls-2" d="M237.93,481.94l-.14-.1.26-.8,1.2,0v.85h-1.08l-.25,0"/><path id="path310" class="cls-2" d="M261.23,483.27l.44.59-.52.28-.18.3-.28.05-.1.5-.24.29-.14.48-.3.23-1.06-.71-.05-.41-2.69-1.45-.12-.08v-.75l.21-.29.37-.47.27-.52-.33-.82-.09-.36-.35-.49.46-.43.5-.47.38.12v.4l.26.24h.51l.94.6h.23l.18,0,.16.08.49.06.22-.3.68-.3.3.25h.5l-.65.8v2.59"/><path id="path326" class="cls-2" d="M225.2,479.56H225l-.76-.34-.68-.54-.63-.39-.49-.46.17-.23,0-.21L223,477l.34-.34h.16l.19-.08.31.43-.05.29.14.15h.21l.15-.29.21,0,0,.21.07.34-.16.32.22.19.23.05.32.3,0,.28-.07.09-.06.59"/><path id="path344" class="cls-2" d="M267.56,491.58l.19.3.19.48.12.87.19.34-.08.35-.13.22-.25-.43-.14.22.14.54-.06.31-.21.16,0,.63-.29.85-.37,1-.45,1.41-.29,1-.33.88-.6.18-.65.32-.43-.2-.58-.27-.21-.39,0-.67-.26-.6-.06-.54.13-.54.34-.12v-.25l.35-.56.07-.47-.17-.35-.14-.47-.06-.67.26-.41.1-.47.37,0,.41-.15.27-.13h.33l.42-.42.61-.45.22-.36-.1-.31.31.09L267,492v-.43l.25-.32.26.31"/><path id="path350" class="cls-2" d="M221.9,472.2l.25-.14.13-.42.23,0,.52.2.42-.14.28.05.11-.17h3L227,471l-.13-.09-.36-3.17-.36-3.23,1.14,0,2.49,1.64,2.5,1.63.17.35.46.21.35.12V469l.82-.07v1.69l-.41.49-.06.44-.66.12-1,.06-.27.26-.48,0h-.47l-.18-.14-.41.11-.69.3-.14.23-.58.32-.1.19-.31.14-.36-.09-.2.17-.11.5-.59.6,0,.24-.2.31,0,.41-.31.11-.17.09-.11-.31-.22.08H226l-.14.21h-.57l-.21-.1-.09.06-.23-.21,0-.21-.09-.08-.16.07,0-.24.15-.18-.3-.3-.09-.2-.17-.16-.14,0-.18.1-.24.1-.2.15-.32-.06-.2-.18-.13,0-.19.09h-.12l0-.26,0-.22-.06-.28-.28-.21-.14-.41,0-.45"/><path id="path358" class="cls-2" d="M256.47,490.89l.56-.06.89.21.19-.1h.52l.26-.22h.44l.81-.28.59-.41.12.32,0,.71.09.64,0,1.13.13.35-.22.52-.29.51-.47.45-.67.28-.84.36-.83.78-.29.14-.51.52-.31.17-.06.53.35.56.15.44v.22l.14,0,0,.73-.12.35.18.13-.11.31-.31.27-.61.25-.89.41-.32.28.06.32.19.06-.07.4h-.56l-.06-.34-.11-.34-.06-.27.13-.84-.19-.54-.36-1.05.78-.85.2-.53.11-.07.08-.44-.12-.22,0-.55.15-.51v-.92l-.39-.24-.35-.05-.16-.18L254,494h-.62l0-.27-.07-.52,2.25-.6.42.35.21-.07.29.19,0,.29-.15.34,0,.51.48.45.23-.51.32-.15-.06-.93-.31-.53-.27-.23h-.26l-.2-.94.2-.55"/><path id="path360" class="cls-2" d="M221.9,472.2l-.48-.5-.45-.54-.49-.19-.36-.22h-.41l-.36.16-.37-.06-.25.23-.07-.39.21-.36.09-.69-.08-.73-.09-.37.08-.37-.2-.35-.39-.32.17-.25h2.89l-.14-1.08.18-.38.7-.07,0-1.93,2.43,0v-1.16l2.79,1.84-1.14,0,.36,3.23.36,3.17.13.09-.17.51h-3l-.11.17-.28-.05-.42.14-.52-.2-.23,0-.13.42-.25.14"/><path id="path368" class="cls-2" d="M243,503.55l-.55-.59-.29-.56-.16-.74-.19-.55-.24-1.16,0-.9-.1-.41-.28-.31-.38-.61-.39-.89-.17-.46-.6-.72,0-.56.35-.14.45-.13.48,0,.44.33.11-.05,3,0,.51.36,1.79.1,1.36-.3.61-.17.48.05.29.16v.06l-.41.17h-.23l-.47.29-.28-.31-1.14.26-.55,0,0,2.64-.72,0v5l-.66.39-.39.06-.47-.15-.33-.05-.12-.33-.3-.22-.35.39"/><path id="path374" class="cls-2" d="M237.2,479.27l-.77.25-.28,0-.29.16-.59,0-.4-.45-.24-.51-.52-.47H232.9l0-1.15,0-.46.14-.45.23-.22.36-.45-.08-.19.15-.29-.17-.43,0-.24,0-.64.21-.29L234,473l.19-.15.79-.09.75.27.27.27.38,0,.35-.18.9.37H238l.44-.31.43,0,.22-.1.4,0,.57.21.58-.4.17,0,.5.79.14,0,.29.29-.08.13,0,.24L241,475l-.2.45-.1.38-.16.16-.15.5-.39.29-.12.37-.16.28-.07.3-.51.24-.42-.29h-.28l-.44.42h-.21l-.35.69-.19.51"/><path id="path468" class="cls-2" d="M253.41,483.47l.29.4,0,.42-.21.09-.4-.05-.22.41-.45-.06.07-.39.1-.05,0-.42.21-.2.18.07.44-.22"/><path id="path476" class="cls-2" d="M256,475.91v.56l-.11.22-.39,0-.25.41.45.05.38.35.12.28.34.17.44.77-.5.47-.46.43-.45.33h-.52l-.6.16L254,480l-.3.2-.65-.48-.18-.3-.41.15-.34-.05-.2.12-.33-.08-.45-.59-.12-.23-.55-.28-.19-.43-.31-.31-.5-.37v-.23l-.41-.29-.5-.28.23-.08.25-.13.19-.64.2-.34.54-.1.12.2.38.42.21.06.26-.12.54,0,.1.15h.74l0-.15.38-.13.08-.21.28-.15.62.42.38-.07.37-.52.41-.4-.07-.43-.18-.21.45,0,0-.16.34,0-.09.53.09.52.38.29.09.24v.36h.1"/><path id="path478" class="cls-2" d="M218.54,472.94l-.3-.57-.37-.26.32-.13.36-.51.18-.38.25-.23.37.06.36-.16h.41l.36.22.49.19.45.54.48.5,0,.45.14.41.28.21.06.28,0,.22-.11,0-.4-.06-.06.08-.16,0-.53-.18h-.36l-1.37,0-.19.08-.25,0-.39.12-.12-.55h.67l.18-.1h.13l.28-.17.31.15h.33l.32-.16-.15-.21-.25.13H220l-.29-.18-.23,0-.17.17-.81,0"/><path id="path490" class="cls-2" d="M222.45,477.83l-.2-.05-.54-.29-.38-.38-.13-.26-.09-.53.39-.32.09-.2.12-.15.21,0,.17-.13h.59l.21.25.16.3,0,.21.11.19v.26l.2,0L223,477l-.33.38,0,.21-.17.23"/><path id="path494" class="cls-2" d="M267.11,475.92l-.33.44-.52.6h-.62l-2.42-.85-.28-.25-.28-.35-.27-.39.16-.26.27-.38.25.13.14.3.33.3h.37l.7-.18.8-.09.66-.22.36-.05.27-.13.42,0h0v1.39"/><path id="path496" class="cls-2" d="M267.7,474.39l.39-.07.35-.25h.28v.2l-.06.42v.38l-.16.26-.21.77-.35.8-.46.92-.63,1-.64.8-.87,1-.74.58-1.1.7-.69.55-.81.86-.17.37-.17.17-.44-.59v-2.59l.65-.8.2-.23h.48l.66-.5,1,0,2.09-2.14.52-.6.33-.44v-1.41h.23l.35-.11"/><path id="path512" class="cls-2" d="M241.63,473.47l.07-.34-.47,0v-.46l-.31-.27.32-1,.95-.69,0-1,.28-1.5.16-.31-.31-.26v-.23l-.27-.2-.19-1.16.75-.41,3,1.43,2.95,1.42,0,2.91-.64-.05-.34.54-.19.45.15.17-.24.22.08.3-.19.3-.07.27.26-.05.15.28v.42l.27.21v.18l-.47.12-.37.29-.54.79-.69.33-.72-.05-.21.07.08.25-.39.25-.31.28-.93.27-.19-.16H243l-.14.18-.61.06.12-.2-.24-.49-.1-.3-.32-.12-.44-.42.16-.34.34.08.21-.06h.41l-.4-.65,0-.48-.05-.48-.29-.46"/><path id="path514" class="cls-2" d="M232.29,478.29l-.6.15-.16-.25-.2-.45-.06-.36.16-.64-.18-.26-.07-.57v-.52l-.31-.37,0-.22h.65l-.09.38.22.21.26.25,0,.36.15.14,0,1.65.19.49"/><path id="path534" class="cls-2" d="M256,483.34l.12.08,2.69,1.45.05.41,1.06.71-.34.88,0,.4.47.26,0,.19-.21.43,0,.22,0,.34.25.45.31.71.27.16-.59.41-.81.28h-.44l-.26.22h-.52l-.19.1-.89-.21-.56.06-.2-1-.25-.33-.15-.2-.73-.13-.42-.22-.47-.12-.29-.12-.31-.18-.4-.9-.43-.4-.15-.42.08-.37-.14-.65.31,0,.27-.26.28-.37.19-.15v-.23l-.16-.16,0-.28.21-.09,0-.42-.29-.4.26-.09h.81l1.51-.05"/><path id="path574" class="cls-2" d="M254.23,504.07l-.15.11-.31.4-.21.4-.42.56-.83.81-.53.48-.56.36-.77.31-.38,0-.09.22-.45-.12-.37.15-.8-.15-.45.1-.3-.05-.77.32-.63.13-.45.3-.34,0-.31-.29h-.25l-.32-.36,0,.11-.1-.21v-.47l-.24-.53.24-.15,0-.6-.49-.74-.37-.66h0l-.53-1,.35-.39.3.21.12.33.33.06.47.15.39-.06.67-.39v-2.82l.2.11.43.72-.06.46.16.27.53-.08.37-.34.35-.22.18-.37.36-.17.31.09.36.21.6,0,.47-.18.08-.24.13-.36.4-.06.22-.28.25-.5.66-.56,1.05-.55h.3l.36.12.25-.09.39.08.36,1.05.19.54-.13.84.06.27-.37-.14-.22.06-.07.22-.2.28v.27l.44.41.43-.08.15-.34h.56l-.18.55-.09.64-.19.35-.5.39"/><path id="path576" class="cls-2" d="M252.34,503.84l-.32-.24-.34.16-.4.3-.4.49.56.6.26-.08.14-.25.41-.12.12-.25.23-.38-.26-.23"/><path id="path578" class="cls-2" d="M255.14,489.25l.35.32.19.6-.13.2-.15.58.15.6-.24.25-.22.67.39.19-2.25.6.07.52-.56.1-.42.29-.09.25-.26.06-.65.6-.41.47-.25,0-.24-.08-.82-.08-.14-.06v-.06l-.29-.16-.48-.05-.61.17-.48-.46-.5-.59,0-2.31h1.54l-.06-.25.11-.27-.13-.33.09-.35-.08-.23.25,0,0,.23.35,0,.47.06.25.33.59.1L251,491l.17.38.57.1.27.31.3.4h.57l-.06-.77-.21.13-.51-.28-.2-.13.09-.72.13-.86-.17-.31.21-.46.2-.08,1-.13.29.08.31.18.29.12.47.12.42.22"/><path id="path536" class="cls-2" d="M254.48,483.39h-.81l-.26.09-.44.22-.18-.07v-.54l.17-.27,0-.57.15-.33.29-.37.28-.19.24-.25-.3-.1.05-.83.3-.2.47.16.6-.16h.52l.45-.33.35.49.09.36.33.82-.27.52-.37.47-.21.28v.76l-1.51.05"/><path id="path52" class="cls-2" d="M252.61,485.87l0-.86-.19-.33.45.06.22-.41.4.05,0,.28.16.16v.23l-.19.15-.28.37-.27.26-.31,0"/><path id="path86" class="cls-2" d="M242.21,477.38l.61-.06.14-.18h.12l.19.16.93-.27.31-.28.39-.25-.08-.25.21-.07.72.05.69-.33.54-.79.37-.29.47-.12.09.31.42.44v.3l-.12.3,0,.22.26.21.56.31.41.29v.23l.5.37.31.31.19.43.55.28.12.23-.25.07h-.47l-.56-.08-.27.06-.11.18-.24,0L249,479l-.83.35-.34-.07-.1.06-.22.43-.55-.14-.54-.07-.47-.27-.61-.24-.4.23-.29.36-.06.5-.48,0-.5-.12-.44.38-.39.66-.08-.21,0-.32-.34-.23-.27-.37-.06-.25-.35-.37.06-.22-.08-.3.06-.55.18-.13.37-.72"/><path id="path164" class="cls-2" d="M240.52,486.07l-.28-.25-.22.12-.3.31-.61-.76.57-.39-.28-.47.25-.18.5-.09.06-.31.4.34.65,0,.23-.34.09-.47-.08-.55-.35-.42.32-.83-.19-.14-.55.06-.2-.37.05-.31.93,0,.6.19.59.16.05-.38.39-.66.44-.38.5.12.48,0-.05.43-.22.38-.14.44-.09.63,0,.41-.12.24V483l-.09.22-.49.34-.34.37-.32.69,0,.59-.19.23-.43.34-.43.45-.28-.13,0-.2H241l-.25.27-.2-.07"/><path id="path226" class="cls-2" d="M231.69,478.44l-1.16.42-.41.24-.67.21-.66-.2,0-.28-.32-.62.19-.8.31-.6-.19-1-.11-.54,0-.41,1.29,0,.32.06.24-.12.34.06,0,.22.31.37v.52l.07.57.18.26-.16.64.06.36.2.45.16.25"/><path id="path332" class="cls-2" d="M252.34,503.84l.26.23-.23.38-.12.25-.41.12-.14.25-.26.08-.56-.6.4-.49.4-.3.34-.16.32.24"/><path id="path362" class="cls-2" d="M256.47,490.89l-.2.55.2.94h.26l.27.23.31.53.06.93-.32.15-.23.51-.48-.45,0-.51.15-.34,0-.29-.29-.19-.21.07-.42-.35-.39-.19.22-.67.24-.25-.15-.6.15-.58.13-.2-.19-.6-.35-.32.73.13.15.2.25.33.2,1"/><path id="path372" class="cls-2" d="M232.5,474.13l0-.49-.86-.16,0-.35-.41-.48-.1-.33.05-.35.48,0,.27-.26,1-.06.66-.12.06-.44.41-.49v-1.69l1.05-.33,2.14-1.46,2.53-1.42L241,466l.42.41.52-.28.19,1.16.27.2v.23l.31.26-.16.31-.28,1.5,0,1-.95.69-.32,1,.31.27v.46l.48,0-.08.34-.21,0,0,.23-.14,0-.5-.79-.17,0-.58.4-.57-.21-.4,0-.22.1-.43,0-.44.31h-.37l-.9-.37-.35.18-.38,0-.27-.27-.75-.27-.79.09L234,473l-.11.42-.21.29,0,.64-.56-.41h-.27l-.25.21"/><path id="path508" class="cls-2" d="M254.63,502.13l-.15.34-.43.08-.44-.41v-.27l.2-.28.07-.22.22-.06.37.14.11.34.06.34"/><path id="path12" class="cls-2" d="M240.11,486.71l-.19.07-.2-.53.3-.31.22-.12.28.25-.27.15-.12.18,0,.31"/><path id="path230" class="cls-2" d="M218.45,473.26l.09-.32.81,0,.17-.17.23,0,.29.18h.23l.25-.13.15.21-.32.16H220l-.31-.15-.28.17h-.13l-.18.1h-.67"/><text class="cls-3" transform="translate(217.06 540.16)"><tspan class="cls-4">Á</tspan><tspan x="13.34" y="0">f</tspan><tspan class="cls-5" x="19.78" y="0">r</tspan><tspan x="27.08" y="0">ica </tspan><tspan x="-33.17" y="26.47">Subsaha</tspan><tspan class="cls-5" x="44.64" y="26.47">r</tspan><tspan x="51.94" y="26.47">iana</tspan></text><g id="Wester_Europe" data-name="Wester Europe"><path id="path222" class="cls-6" d="M85.6,40.44l-2.07,2.92,2-.37,2.12,0-.51,2.17-1.74,2.37,2,.16.16.28,1.72,3.06,1.33.41,1.19,2.91.55,1,2.35.48-.24,1.6-1,.73.77,1.28-1.74,1.28-2.59,0-3.3.67-.9-.48-1.28,1.15-1.79-.28-1.36.93-1-.49,2.84-2.57,1.73-.53h0l-3-.42-.55-1,2-.78-1.06-1.35.36-1.65,2.88.23h0l.29-1.48-1.3-1.58,0,0L82,50.62l-.46-.7.7-1.16L81.65,48,80.6,49.28l-.11-2.52-1-1.35.71-2.76,1.5-2.2,1.55.22,2.33-.23"/><path id="path282" class="cls-6" d="M79.42,53l.32,1.81-1.46,2.25-3.44,1.47-2.74-.38,1.57-2.61-1-2.57,2.64-2,1.46-1.21.4,1.39-.4,1.37,1.2,0,1.46.52"/><path id="path220" class="cls-6" d="M80.46,51.23l-1,1.76L78,52.47l-1.2,0,.4-1.37-.4-1.39,1.62-.1,2.08,1.59"/><path id="path216" class="cls-6" d="M98.37,61.69l1.35,1.15,1-.19,1.7,1.1.43.21.56-.05.91.63,2.79.45-1,1.63-.25,1.7-.53.4-.88-.22.06.6-1.42,1.32,0,1.06.93-.37.66,1-.08.65.57.87-.67.7.5,1.78,1.05.29-.22,1-1.76,1.28-3.81-.61-2.82.73-.23,1.36L95,80.46l-2.18-1-.7.49-3.57-1L87.74,78l1-1.36.37-4.59-2-2.45-1.43-1.2-3-.91-.19-1.73L85,65.26l3.25.62-.61-2.72,1.83,1L94,62.3l.59-2,1.69-.5.28.87.9,0,.9,1"/><path id="path54" class="cls-6" d="M97.84,59.32l1.42.19,1.79-.51,1.23,1.08,1.06.57-.22,1.65-.5.09-.21,1.36-1.7-1.1-1,.19-1.35-1.15-.9-1-.9,0-.28-.87,1.55-.48"/><path id="path178" class="cls-6" d="M110.63,50.13l0,1,2,.6,0,.91,2-.48,1.09-.7,2.19,1,.91.81.45,1.29-.54.68.71.89.48,1.34-.15.86.79,1.58-.86.25-.52-.28-.48.47-1.39.47-.72.61-1.41.53.34.73.21,1,1,.58,1.1,1-.68,1.11-.7.3.27,1.55-.18.4-.6-.49-.93-.07-1.38.42-1.71-.1-.28.63-1-.66-.58.13-2.08-.72-.39.51h-1.65l.25-1.7,1-1.63-2.79-.45-.91-.63.11-1.06-.39-.55.22-1.65L103,58.06h1.16l.49-.93.48-2.3-.36-.86.38-.54,1.62-.13.36.56,1.31-1.26-.44-1-.09-1.46,1.46.34,1.24-.39"/><path id="path336" class="cls-6" d="M103.12,62.3l.39.55-.11,1.06-.56.05-.43-.21.21-1.36.5-.09"/><path id="path378" class="cls-6" d="M103.18,53.9l1.61.07.36.86-.48,2.3-.49.93H103l.32,2.59-1.06-.57L101.05,59l-1.79.51-1.42-.19,1-.68L100.53,55l2.65-1.06"/><path id="path46" class="cls-6" d="M124.3,67.12l-.15,1h-1.09l.38.51-.65,1.51-.36.4-1.7.06-1,.53-1.59-.18-2.77-.61-.44-.81-1.91.4-.22.45L111.64,70l-1-.07-.87-.42.29-.58-.07-.42.58-.13,1,.66.28-.63,1.71.1,1.38-.42.93.07.6.49.18-.41-.27-1.54.7-.31.68-1.1,1.44.77,1.09-1,.68-.18,1.5.74.91-.13.89.45-.15.31.19.82"/><path id="path148" class="cls-6" d="M110,68.54l.07.42-.29.58.87.42,1,.07-.15,1-.85.39-1.44-.29-.42.94-.92.07-.33-.37-1.09.79-.93.11-.84-.49-.66-1-.93.37,0-1.06,1.42-1.32-.06-.6.88.22.53-.4h1.65l.39-.51,2.08.72"/><path id="path214" class="cls-6" d="M109.93,80.89l-.64,1.72-.88-.45L108,80.65l.39-.83L109.6,79l.33,1.93"/></g><g id="Eastern_Europe" data-name="Eastern Europe"><path id="path176" class="cls-7" d="M80.06,190.16l-.91-.46-.93.13-1.53-.75-.69.19-1.11,1-1.47-.78-1.11-1-1-.59-.21-1.05-.34-.73,1.43-.54.73-.62,1.42-.49.49-.47.53.28.88-.26.93.81,1.47.21-.12.69,1.07.51.3-.64,1.35.28.19.78,1.46.15.91,1.21H83.2l-.3.45-.46.1-.12.56-.38.12-.06.22-.67.26-.87,0-.28.53"/><path id="path426" class="cls-7" d="M76.23,184l-.81-1.61.15-.87-.49-1.36-.71-.91.55-.69-.46-1.31,1.34-.77,3.08-1.2,2.48-.89,2,.44.15.64,1.9,0,2.43.3,3.63,0,1,.28.47.8L93,178l.55,1,0,1-1.18.52.61,1.18,0,1.13L94,185l-.21.69-1,.29L91,188l.51,1.1L91.1,189,89.22,188l-1.42.34-.93-.25-1.16.53-1-.87-.81.33-.11-.15-.91-1.21-1.46-.15-.19-.78-1.35-.28-.3.64-1.07-.51.12-.69-1.47-.21-.93-.81"/><path id="path14" class="cls-7" d="M87.22,206l-.25.77.28,1,.81.55,0,.59-.64.33-.11.72L86.35,211l-.34-.16,0-.49-1.09-.75-.17-1.07.17-1.54.27-.7-.34-.36-.13-.73.86-1.12.12.43.53-.2.42.61.47.23.14.83"/><path id="path62" class="cls-7" d="M91.29,200.54l.57,1,.76-.17,1.52.36,2.9.13,1-.6,2.33-.54,1.43.85,1.16.24-1,1-.72,1.64.63,1.3-1.7-.3-2,.71,0,1.13-1.79.21-1.39-.79-1.58.63-1.46-.07-.14-1.5-1-.73.32-.32-.21-.28.33-.72.75-.72-1-1-.17-.85.48-.52"/><path id="path70" class="cls-7" d="M84.09,199.08h.72l-.5,1,1,.89L85,202.08l-.47.11-.37.21-.64.53-.29,1.26-1.74-.86-.75-1-.75-.51-.91-.86-.42-.72-1-1.09.41-1,.71.54.43-.48.92-.06,1.7.39,1.36,0,.89.52"/><path id="path72" class="cls-7" d="M92.92,176.8l1.91,0,2.14-1,.46-1.48,1.62-.84-.19-1.19,1.2-.45,2.12-1,2.07.67.28.66,1-.31,1.93.63.19,1.24-.42.71,1.23,1.72.81.47-.12.47,1.33.46.57.68-.77.57-1.59-.09-.38.24.46.85.49,1.63-1.7.15-.6.56-.13,1.27-.79-.25-1.78.13-.51-.59-.74.44-.74-.37-1.56,0-2.2-.61-2-.19L95,182l-1.08.69-.94.1,0-1.13-.61-1.18,1.18-.52,0-1L93,178l-.09-1.15"/><path id="path248" class="cls-7" d="M83.74,196.61l.48.92.63.67-.76.88-.89-.52-1.36,0-1.7-.39-.92.06-.43.48-.71-.54-.41,1,1,1.09.42.72.91.86.75.51.75,1,1.74.86-.21.39-1.86-.84L80,202.91l-1.81-.69-1.65-1.7.39-.18-.9-1,0-.79-1.27-.37-.6,1-.59-.79,0-.82.07,0,1.37.08.36-.4.67.38.78.05V197l.69-.24.19-1,1.57-.63.62.29,1.48,1L83,197l.73-.36"/><path id="path342" class="cls-7" d="M99.11,191.08l.47-.36,1.31-.24,1.45.75.81.1.89.65-.14.81.72.4.29,1,.68.6-.14.36.37.24-.52.18-1.16-.07-.2-.33-.41.19.14.42-.54.76-.34.81-.5.26-.35-1.08.2-1-.06-1.05-1.14-1.42-.62-1-.61-.72-.6-.23"/><path id="path348" class="cls-7" d="M87.22,206l.25,0,.09-.47,1.16-.35.44-.09.67-.13.92,0,1,.73.14,1.5-.37.08-.33.39-1.06,0-.76.49-1.29.2-.81-.55-.28-1,.25-.77"/><path id="path354" class="cls-7" d="M85.66,204.54l-.12-.43-.86,1.12.13.73-.41-.18-.55-.74-.85-.46.21-.39.29-1.26.64-.53.37-.21.52.39.29.32.65.25.75.48-.16.19-.37.52-.53.2"/><path id="path440" class="cls-7" d="M91.4,191.9l.85-.52,1.22.27h1.26l.92.59.67-.38,1.46-.23.49-.56h.84l.6.23.61.72.62,1,1.14,1.42.07,1.05-.21,1,.35,1.08.88.43.93-.38.89.4.05.61-1,.5-.6-.22-.55,2.81-1.16-.24-1.43-.85-2.33.54-1,.6-2.9-.13-1.52-.36-.76.17-.57-1-.36-.41.46-.39-.49-.29-.62.52-1.15-.68-.15-1-1.2-.56-.22-.75-1.07-.93,1.58-.44L89.26,194l.93-1.63,1.21-.5"/><path id="path444" class="cls-7" d="M91.44,175.72l-3.63,0-2.43-.3.45-1.15,2.72-.86,2.07.47.87.41-.21.72.16.67"/><path id="path498" class="cls-7" d="M87.78,197.77l1.2.56.15,1,1.15.68.62-.52.49.29-.46.39.36.41-.48.52.17.85,1,1-.75.72-.33.72.21.28-.32.32-.92,0-.67.13L89.1,205l.23-.27.22-.56h-.28l-.38-.42-.32-.11-.26-.37-.37-.14-.28-.32-.36.12-.27.77-.47.16.16-.19-.75-.48-.65-.25-.29-.32-.52-.39.47-.11.28-1.09-1-.89.5-1h-.72l.76-.88-.63-.67-.48-.92,1.52-.62,1.23.11,1.07.92.22.75"/><path id="path504" class="cls-7" d="M73.84,195.19l1.63.18,1-.54,1.73-.06.37-.4.33,0,.39.8-1.57.63-.19,1-.69.24v.66l-.78-.05-.67-.38-.36.4-1.37-.08.44-.22-.48-1,.22-1.17"/><path id="path538" class="cls-7" d="M109.3,181.45l.73.1.5-.57.6.12,2-.24,1.26,1.43-.49.52.17.78,1.57.12.7,1.08,0,.5,2.5.87,1.51-.39,1.22,1.16,1.15,0,2.91.8,0,.73-.8,1.28.44,1.34-.31.81-1.91.17-1,.68-.06,1.06-1.57.19-1.32.78-1.84.12-1.7.89.12,1.47,1,.57,2-.14-.38.84-2.16.4-2.68,1.35-1.1-.47.44-1.1-2.16-.69.35-.45,1.89-.78-.57-.54-3.07-.6-.13-.89-1.83.29-.73,1.31L105,198.06l-.89-.4-.93.38-.88-.44.5-.25.34-.81.54-.76-.14-.42.41-.19.2.33,1.16.07.52-.18-.37-.24.14-.36-.68-.6-.29-1-.72-.4L104,192l-.89-.65-.81-.1-1.45-.75-1.31.24-.47.36h-.84l-.49.56-1.46.23-.67.38-.92-.6H93.47l-1.22-.27-.85.52-.14-.65-1.09-.66.38-1,.55-.64.43.14L91,188,92.81,186l1-.29L94,185l-1-2.19.94-.1L95,182l1.53-.05,2,.19,2.2.61,1.56,0,.74.37.74-.44.51.58,1.78-.12.79.25.13-1.27.6-.56,1.7-.15"/><path id="path252" class="cls-7" d="M78.56,194.37l.66-1.54-.38-.53H80l.15-1,1,.62.73.27,1.65-.3.16-.49.78-.07,1-.37.22.15.92-.3.47-.57.64-.15,2.11.74.43-.25,1.09.66.14.65-1.21.5L89.26,194l-1.19,1.62-1.58.45L85.26,196l-1.52.62L83,197l-1.63-.46-1.48-1-.62-.3-.39-.8-.33,0"/><path id="path502" class="cls-7" d="M83.79,188l.11.15.81-.33,1,.87,1.16-.53.93.25,1.42-.34,1.88.94-.55.64-.38,1-.43.25-2.11-.74-.64.15-.47.57-.92.3-.22-.15-1,.37-.78.07-.16.49-1.65.29-.73-.26-1-.62-.2-.84.16-.31.28-.53.87,0,.67-.26.06-.22.38-.12.12-.56.46-.1.3-.45h.59"/><path id="path318" class="cls-7" d="M87.56,205.56l-.09.47-.25,0-.14-.83-.47-.23-.42-.61.37-.52.47-.16.27-.77.36-.12.28.32.37.14.26.37.32.11.38.42h.28l-.22.56-.23.27.06.17-.44.09-1.16.35"/></g><text class="cls-3" transform="translate(63.3 112.7)"><tspan class="cls-8">E</tspan><tspan x="10.7" y="0">u</tspan><tspan class="cls-9" x="22.85" y="0">r</tspan><tspan x="29.84" y="0">opa </tspan><tspan x="-2.09" y="26.47">O</tspan><tspan class="cls-5" x="13.1" y="26.47">r</tspan><tspan x="20.4" y="26.47">ie</tspan><tspan class="cls-10" x="36.61" y="26.47">n</tspan><tspan x="48.76" y="26.47">tal</tspan></text><text class="cls-3" transform="translate(46.62 254.01)"><tspan class="cls-8">E</tspan><tspan x="10.7" y="0">u</tspan><tspan class="cls-9" x="22.85" y="0">r</tspan><tspan x="29.84" y="0">opa del </tspan><tspan x="32.68" y="26.47">Es</tspan><tspan class="cls-11" x="52.27" y="26.47">t</tspan><tspan x="59.44" y="26.47">e</tspan></text><g id="South-eastern_Asia" data-name="South-eastern Asia"><path id="path80" class="cls-12" d="M95.17,360.49l.49-.44,1-.65,0,.58-.07.76-.59,0-.26.41-.56-.62"/><path id="path254" class="cls-12" d="M103.18,378l-.52,0-1.63-.84,1.15-.23.65.36.43.36-.08.32"/><path id="path256" class="cls-12" d="M107.76,377.89l-1.05.26-.15-.15.11-.4.53-.73,1.22-.47.12.23,0,.36-.8.9"/><path id="path258" class="cls-12" d="M99.72,375.45l.44.31.76-.09.31.5-1.43.24-.85.16h-.66l.42-.68h.68l.33-.42"/><path id="path260" class="cls-12" d="M105.88,375.45l-.19.66-1.84.34-1.64-.15v-.44l1-.24.77.35.82-.09,1.1-.43"/><path id="path262" class="cls-12" d="M88.3,373.88l2.36.12.27-.49,2.28.57.45.77,1.85.22,1.51.7-1.41.46-1.35-.48-1.12,0-1.27-.09-1.15-.21L89.29,375l-.9-.11-.52.15-2.24-.49-.21-.52L84.29,374l.84-1.14,1.5.07,1,.47.51.09.17.42"/><path id="path264" class="cls-12" d="M120.42,373.21l-.63.81-.12-.9.22-.42.26-.4.28.34v.57"/><path id="path266" class="cls-12" d="M111.22,369.94l-.46.4-.85-.22-.24-.51,1.25-.06.3.39"/><path id="path268" class="cls-12" d="M115.19,369.51l.45.91-1-.49-1-.1-.7.08-.85,0,.29-.66,1.52,0,1.36.34"/><path id="path270" class="cls-12" d="M119.71,367.21l.34,1.92,1.28.7,1-1.25,1.42-.72h1.09l1,.42.92.42,1.32.23,0,3.86,0,3.88-1.1-1-1.25-.24-.3.34-1.56,0,.52-1,.78-.34-.32-1.29-.59-1-2.39-1-1-.1L119.12,370l-.37.57-.47.11-.28-.44v-.51l-.94-.58,1.32-.43.88,0-.1-.31h-1.8l-.49-.71-1.1-.21-.52-.59,1.66-.29.63-.38,2,.48.19.44"/><path id="path272" class="cls-12" d="M108.75,364.17l-1,1.17-.92.23-1.19-.23-2.05.06-1.07.17-.18.89,1.1,1.06.67-.54,2.29-.4-.1.54-.53-.17-.54.69-1.08.46,1.16,1.52-.22.41,1.1,1.36v.78l-.65.35-.49-.42.6-1-1.21.46-.31-.33.16-.45-.88-.7.09-1.15-.82.36.1,1.38,0,1.7-.78.17-.53-.35.36-1.09-.2-1.15h-.51l-.38-.82.5-.77.18-.94.62-1.78.26-.49,1-.88,1,.35,1.55.16,1.42-.05,1.22-.85.21.26"/><path id="path274" class="cls-12" d="M113,364.51l-.06,1-.63-.11-.19.72.51.62-.35.14-.5-.75-.36-1.51.25-.94.4-.43.09.64.73.11.11.48"/><path id="path276" class="cls-12" d="M99.69,363.69l1.38,1.09-1.46.14-.41.81,0,1.07-1.18.81,0,1.18-.48,1.81-.18-.42-1.4.53-.49-.72-.87-.07-.62-.38-1.46.43-.45-.58-.81.07-1-.14-.19-1.59-.61-.33-.59-1-.17-1,.14-1.1.73-.78.21.79.84.66.79-.24.79.09.71-.6.59-.1,1.17.33,1-.25.63-1.65.48-.41.42-1.35h1.42l1.06.2L99,362l.91,1.12-.21.55"/><path id="path278" class="cls-12" d="M84.85,372.78l-1.37,0-1-1-1.58-1-.53-.71-.93-1-.61-.88-.94-1.66-1.08-1-.36-1-.45-.93L74.86,363l-.65-1-.92-.66L72,360l-.11-.6.8.05,1.9.23,1.09,1.16.95.8.68.49,1.17,1.28h1.25l1,.81.71,1,.94.54-.49,1,.7.41.45,0,.2.83.43.66.91.1.59.75L84.9,371l-.05,1.83"/><path id="path314" class="cls-12" d="M82,353.22l-.5-.62-.62-1.24-.29-1.45.78-1,1.6-.23,1.15.17,1,.47.55-.83,1.09.45.29.8-.15,1.44-2.07.92.54.73-1.29.09L83,353.4l-1-.18"/><path id="path352" class="cls-12" d="M77.12,341.65l-.71.53-.87.05L75,343.56l-.52.22.59,1.07.78.89.51.81-.45,1.05-.43.22.3.61.82,1,.14.67,0,.56.48,1.09-.68,1.12-.59,1.23-.12-.89.38-.91-.42-.71.1-1.31-.5-.63-.4-1.44-.22-1.53-.53-1-.81.61-1.4.87L71.3,347l-.77-.28.43-1.51-.26-1.14-1-1.42.15-.44-.72-.16-.88-1-.08-1,.43.19,0-.89.61-.29-.13-.53.27-.42,0-1.3,1,.29.55-1,.06-.61.68-1.06,0-.73,1.59-.87.88.23-.1-.79.43-.23-.09-.49.72-.09.41.75.54.3,0,1,0,1-1.16,1.06L74.74,337l1.3-.21.29,1.15.78.24-.36,1,.92.46.53.23.9-.36,0,.51-1,.81-.26.45-.71.29"/><path id="path364" class="cls-12" d="M79,358.5l.1.61.81-.14.4-.49.29.11.72.72.52.79.07.8-.13.54.12.41.09.7.43.32.48,1.05,0,.4-.87.08-1.17-.88-1.45-.94-.15-.6-.71-.79-.17-1-.44-.65.13-.87-.27-.5L78,358l1,.52"/><path id="path366" class="cls-12" d="M100.6,360.55l-.91.4-1.06-.2H97.21l-.42,1.35-.48.41-.63,1.65-1,.25-1.17-.33-.59.1-.71.6-.79-.09-.79.24-.84-.66-.21-.79.9.4,1-.22.25-1,.53-.23,1.47-.25.88-.94.61-.75.56.62.26-.41.59,0,.07-.76,0-.58,1-.83.62-.93h.5l.63.6.06.52.81.33,1,.36-.08.46-.83.06.22.58"/><path id="path404" class="cls-12" d="M110.15,355.87l.13.79.07.67-.42,1.09-.45-1.21-.58.6.4.87-.36.56-1.44-.69-.35-.86.37-.56-.78-.57-.38.5-.58-.05-.91.66-.21-.34.49-1,.77-.33.67-.45.44.54.93-.33.21-.53.87,0-.08-.92,1,.56.1.6.09.44"/><path id="path406" class="cls-12" d="M107.2,353.65l-.44.39-.38.75-.39.36-.76-.83.25-.32.31-.33.14-.74.68-.07-.2.8.91-1.15-.12,1.14"/><path id="path408" class="cls-12" d="M100.46,354.8l-1.64,1.13.61-.84.89-.73.74-.83.64-1.19.22,1-.81.66-.65.82"/><path id="path410" class="cls-12" d="M104.62,351.72l.74.37h.78l0,.5-.57.5-.78.36,0-.55.09-.61-.19-.57"/><path id="path412" class="cls-12" d="M109.07,351.39l.35,1.34-1-.32,0,.4.3.74-.59.27,0-.84-.37-.06-.19-.73.72.1v-.46l-.76-.91,1.18,0,.34.45"/><path id="path414" class="cls-12" d="M104.18,350.3l-.32,1-.53-.6-.63-.92,1,.05.43.43"/><path id="path416" class="cls-12" d="M103.93,343.71l.76.35.38-.32.11.31-.2.51.42.87-.33,1-.72.41-.2,1,.28,1,.65.14.55-.15,1.53.67-.11.66.4.29-.13.55-1-.59-.45-.63-.32.44-.78-.72-1.12.18-.61-.27.06-.5.38-.3-.37-.28-.15.43-.61-.69-.19-.53,0-1.16.49.4.13-1.9.4-1.11h.75"/><path id="path516" class="cls-12" d="M80.87,351.36l-1.11-.55-1.05,0,.18-.94H77.81l-.1,1.32L77.05,353l-.4,1,.08.87.8,0L78,356l.22,1,.69.68.74.14.64.62-.4.49-.81.14-.1-.61L78,358l-.22.21-.48-.45-.21-.59-.66-.68-.59-.56-.21.7-.23-.66.13-.75.37-1.14.59-1.23.68-1.12-.48-1.09,0-.56-.14-.67-.82-1-.3-.61.43-.22.45-1.05-.51-.81-.78-.89-.59-1.07.52-.22.56-1.33.87-.05.71-.53.71-.29.53.38.07.74.83.06-.3,1.29,0,1.09,1.3-.73.37.22.72,0,.25-.42.93.08.93,1,.08,1.2,1,1.06-.06,1-.4.54L83,348.68l-1.6.23-.78,1,.29,1.45"/><path id="path522" class="cls-12" d="M108.42,376.4l.14-.28,1.06-.27.86,0,.38-.15.47.15-.45.32-1.29.52-1,.34,0-.36-.12-.23"/><path id="path566" class="cls-12" d="M87.59,340,86,341l-1,1.16-.27.85.94,1.29,1.15,1.59,1.11.75.75,1,.57,2.23L89,352l-1,.78-1.41.77-1,1L84,355.65l-.45-.76.34-.81L83,353.4l1.07-.48,1.29-.09-.54-.73,2.07-.92.15-1.44-.29-.8.23-1.21-.31-.86-.93-.84L85,345l-1-1.45-1.48-.73.36-.44.78-.33-.47-1.07H81.63l-.55-1.12-.72-1,.66-.31h1l1.2-.15,1-.66.59.47,1.12.23-.19.71.59.51,1.23.32"/><path id="path322" class="cls-12" d="M84.11,348.85l.4-.54.06-1-1-1.06-.08-1.2-.93-1-.93-.08-.25.42-.72,0-.37-.22-1.3.73,0-1.09.3-1.29-.83-.06-.07-.74-.53-.38.26-.45,1-.81.11.29.66,0L79.72,339l.64-.18.72,1,.55,1.12h1.52l.47,1.07-.78.33-.36.44,1.48.73L85,345l.78,1.07.93.84.31.86-.23,1.21-1.09-.45-.55.83-1-.47"/></g><text class="cls-3" transform="translate(76.92 412.27)"><tspan class="cls-11">A</tspan><tspan x="13.37" y="0">sia </tspan><tspan x="-31.9" y="26.47">Sudo</tspan><tspan class="cls-5" x="15.67" y="26.47">r</tspan><tspan class="cls-13" x="22.97" y="26.47">ie</tspan><tspan class="cls-10" x="39.18" y="26.47">n</tspan><tspan x="51.33" y="26.47">tal</tspan></text><g id="Eastern_Asia" data-name="Eastern Asia"><path id="path154" class="cls-14" d="M211.71,81l-.87.48-.84-.31,0-.87.5-.46,1.12-.29.58,0,.23.38-.45.45-.24.59"/><path id="path156" class="cls-14" d="M229.32,46.38l1.77.4,1.2.9.41,1.17h1.55l.88-.49,1.68-.37-.54,1.13-.39.45-.35,1.35-.68,1.18-1.24-.22-.87.43.27,1-.15,1.41-.52,0v.6l-.66-.7-.4.66-1.57.51.16.62-.88,0-.48-.36-.7.83-1.12.62-.83.74-1.42.33-.75.54-1.09.31.54-.53-.22-.45.81-.77-.54-.61-.88.41-1.15.8-.63.75-1,0-.52.53.53.77.83.19,0,.5.8.33,1.14-.8.9.44.66,0,.17.59-1.44.31-.48.6-1,.56-.52.78,1.1.61.4,1.08.61,1,.69.84v.8l-.64.29.24.57.6.34-.16.86-.25.84-.57.1-.74,1.14-.83,1.38L220.17,75l-1.4,1-1.41.87-1.15.12-.62.45-.35-.33-.58.51-1.42.51-1.07.16-.35,1.08-.56.06-.27-.74.24-.4-1.36-.32-.48.16-1-.26-.49-.42.16-.59-.93-.19-.49-.39-.86.55-1,.12H204l-.55.25-.53.15.16,1.17-.54,0-.09-.24,0-.42-.74.3-.44-.19-.76-.39.3-.85-.64-.2-.25-1-1.07.17.12-1.23,1-.87,0-.86,0-.81-.45-.25-.34-.62-.59.08-1.1-.16.35-.45-.48-.66-.72.45-.86-.26-1.17.67-.92.79-.82.13-.45-.28-.54,0-.72-.24-.55.27-.67.78-.09-.83-.62.22L188,71.4l-1.15-.24-.83-.47-.79-.21-.34-.51-.57-.15-1-.7-.81-.33-.42.26-1.42-.75-1-.68-.29-1.2.73.15,0-.56-.4-.56.1-.89-1.09-1.3L177,62.81l-.3-.86-.75-.52-.19-.32-.15-.65,0-.44-.62-.26-.33.12-.26-1.06.29-.26-.14-.27,1-.55.7-.22,1.08.15.38-.74,1.3-.14.37-.46,1.6-.63.14-.27-.08-.67.7-.31-.92-2.08,2-.48.52-.27.73-2.2,2,.41.56-.56.05-1.25.84-.12.78-.83.4-.11.26.88.86.67,1.45.46.7,1-.39,1.43.36.53,1.21.2,1.37.17,1.23.75.63.13.46,1.1.6.71,1.12,0,2.09.27,1.36-.17,1,.18,1.5.71h1.23l.45.36,1.19-.63,1.64-.4,1.52-.05,1.19-.41.73-.64.71-.4-.16-.39-.33-.46.53-.78.58.11,1,.24,1-.64,1.55-.47.75-.81.71-.35,1.48-.16.8.14.11-.44-.92-.86-.81-.4-.78.46-1-.2-.57.16-.26-.51.71-1.25.5-1,1.22.48,1.43-.8v-.57l.92-1.37.57-.41,0-.73-.56-.31.84-.66,1.27-.24,1.35,0,1.52.4.89.49.63,1.32.38.56.35.79.38,1.26"/><path id="path302" class="cls-14" d="M236.41,64.75l.13.38-.57.66-.42-.35-.52.25-.27.64L234.1,66V65.5l.56-.65.58.12.42-.46.74.24"/><path id="path304" class="cls-14" d="M242.86,61.42l-.39.9.18.55-.53.79-1.3.52-1.78.07-1.45,1.25-.69-.42,0-.82-1.77.24-1.2.52-1.19,0,1,.8-.68,1.85-.65.45-.5-.42.25-1-.64-.32-.41-.75,1-.33.53-.69,1-.57.75-.76,2-.33,1.09.23,1.06-2,.68.53,1.49-1.12.58-.44.64-1.4-.17-1.29.42-.74,1.09-.21.55,1.61,0,.93-.94,1.14,0,1.17"/><path id="path306" class="cls-14" d="M245.84,53.27l.71.25.72-.51.23,1.34-1.51.33-.89,1.17L243.5,55,243,56.33l-1.13,0-.14-1.17.5-.91,1.09-.07.29-1.65.3-.95,1.2,1.26.78.41"/><path id="path316" class="cls-14" d="M230,59.76l.88,1.33.25.73v1.29l-.38.61-.92.21-.82.46-.91.09-.12-.6.19-.83-.45-1.16.76-.19-.7-1,.06-.11.46,0,.39-.51.72,0,.44-.08.14-.27"/><path id="path356" class="cls-14" d="M188.76,47l1.07-.22,1.94-1.09,1.54-.61.89.4,1.06,0,.68.59,1,.05,1.47.32,1-.89-.41-.76,1.05-1.34,1.14.54.92.15,1.19.33.2,1,1.44.54,1-.24,1.29-.17,1,.17,1,.61.62.65h.94l1.28.2.94-.31,1.34-.21,1.48-.9.61.14.54.43,1.21-.11-.5,1L217,48.42l.26.51.57-.16,1,.2.78-.46.81.4.92.86-.11.44-.8-.14-1.48.16-.71.35-.75.81-1.55.47-1,.64-1-.24-.58-.11-.53.78.33.46.16.39-.71.4-.73.64-1.19.41-1.52.05-1.64.4-1.19.63L205.8,56h-1.23l-1.5-.71-1-.18-1.36.17L198.62,55l-1.12,0-.6-.7-.46-1.1-.63-.14-1.23-.75-1.37-.17-1.21-.2-.36-.53L192,50l-.7-1-1.45-.46-.86-.67-.26-.88"/><path id="path430" class="cls-14" d="M232.35,55.38l.14.2-.38-.07-.45.4-.3.4,0,.84-.53.25-.18.21-.38.34-.68.19-.44.31,0,.49-.12.13.41.19.57.5-.14.27-.44.08-.72,0-.39.51-.46,0-.06.11-.49-.22-.13.21-.29.1,0-.22-.26-.1-.28-.18.28-.5.24-.13-.09-.21.26-.62-.07-.19-.59-.12-.48-.31.83-.74,1.12-.62.7-.83.48.36.88,0-.16-.62,1.57-.51.4-.66.66.7"/><path id="path532" class="cls-14" d="M223.34,75.15l-.61,1.65-.44.84-.53-.86-.12-.77.6-1,.81-.79.47.31-.18.63"/></g><g id="Latin_America_and_the_Caribbean" data-name="Latin America and the Caribbean"><path id="path18" class="cls-15" d="M217.57,228.94l-.6,0-.33-.3-.38,0h-.67V226.8l.24.38.31.62.83.51.88.21-.28.42"/><path id="path20" class="cls-15" d="M217.91,205.1l.37.47.24-.52.72,0,.11.13,1.16,1,.52.1.77.47.65.26.09.28-.62,1,.64.18.71.1.5-.1.57-.5.1-.58.32-.12.31.37v.52l-.53.36-.43.27-.71.64-.84.9-.16.54-.17.69v.67l-.14.15-.05.44,0,.36.8.59-.09.48.4.3,0,.34-.61.9-.94.38-1.27.15-.69-.07.13.42-.13.54.12.36-.38.25-.65.1-.61-.26-.24.19.09.72.42.22.35-.23.19.38-.58.23-.51.46-.09.75-.15.4h-.6l-.5.39-.18.56.62.56.61.16-.22.69-.75.44-.41.92-.57.32-.26.37.2.84.42.47-.27,0-.58-.13-1.53-.11-.26-.47v-.6l-.42.05-.22-.29-.06-.84.49-.35.2-.49-.08-.39.34-.66.23-1-.07-.44.28-.14-.07-.28-.29-.15.21-.32-.29-.28-.15-.84.26-.15-.11-.89.15-.73.17-.64.38-.26-.2-.69v-.64l.48-.45v-.58l.36-.67v-.63l-.17-.12-.29-1.17.39-.69-.06-.64.23-.6.41-.62.45-.4-.19-.26.13-.21,0-1.08.69-.32.22-.66-.08-.16.53-.58.82.15"/><path id="path64" class="cls-15" d="M210,176.76l-.16,0-.16-.37-.23-.19.13-.41.19,0,.22.53v.38"/><path id="path66" class="cls-15" d="M209.78,174.93l-.69.11-.05-.25.3,0,.42,0,0,.17"/><path id="path68" class="cls-15" d="M210.3,174.92l-.11.47-.12-.09V175l-.28-.25v-.08l.5.29"/><path id="path74" class="cls-15" d="M202.62,180.53v-.09l.08,0,.11.08.23-.38h.12v.09h.12v.17l-.1.28.06.09-.07.23,0,.06-.07.31-.13.17-.11,0-.13.21h-.19l.05-.7v-.5"/><path id="path76" class="cls-15" d="M219.24,205.08l-.72,0-.24.52-.37-.47-.83-.15-.53.58-.46.08-.24-.88-.34-.71.2-.61-.34-.27-.08-.45-.31-.43.4-.67-.27-.53.14-.21-.11-.23.25-.31v-.52l0-.44.14-.21-.55-1,.47,0h.32L216,198l.55-.24.33-.24.83-.1-.07.46.08.24-.05.41.69.55.7.1.25.23.43.13.26.18h.4l.37.18,0,.36.13.18v.27h-.19l.24.73,1.22,0-.1.36.07.25.35.18.15.39-.12.49-.17.28.06.36-.2.13v-.2l-.59-.32H221l-1.11.18-.3.56v.34l-.25.76-.11-.13"/><path id="path78" class="cls-15" d="M222.55,210.4l.84-.9.71-.64.43-.27.53-.36v-.52l-.31-.37-.32.12.13-.37.08-.39v-.35l-.22-.12-.24.11-.24,0-.07-.25-.06-.59-.12-.19-.43-.17-.25.13-.67-.13,0-.86-.19-.35.2-.13-.06-.36.17-.28.12-.49-.15-.39-.35-.18-.07-.25.1-.36-1.22,0-.24-.73h.19v-.27l-.13-.18,0-.36-.37-.18H220l-.26-.18-.43-.13-.25-.23-.7-.1-.69-.55.05-.41-.08-.24.07-.46-.83.1-.33.24L216,198l-.15.19h-.32l-.47,0-.36.11-.29-.07,0-.94-.52.37-.56,0-.24-.33-.42,0,.14-.27-.36-.37-.26-.55.17-.11v-.26l.38-.18-.06-.33.16-.21,0-.28.73-.42.51-.11.09-.1.57,0,.28-1.66,0-.27-.1-.35-.28-.22v-.44l.36-.1.12.06,0-.23-.37-.06v-.38h1.23l.21-.21.17.19.13.36.12-.07.34.32.5,0,.12-.19.47-.14.26-.1.07-.26.45-.17,0-.13-.54-.05-.08-.38,0-.41L218,189l.12-.05.47.07.5.16.18-.15.46-.09.7-.23.23-.23-.08-.17.33,0,.15.14-.09.27.22.09.15.28-.18.22-.1.51.16.31.05.28.39.29.31,0,.07-.12.2,0,.28-.1.21-.16.35.05.15,0,.35.05,0-.12-.1-.12.06-.18.26.06.29-.06.37.12.27.13.2-.17.14,0,.09.17.3,0,.24-.23.2-.45.37-.56.21,0,.16.34.36,1.06.33.1,0,.42-.47.5.19.19,1.12.09,0,.61.48-.4.8.22,1.05.37.31.36-.11.34.74-.19,1.23.32.94,0,.94.5.81.68.48.18.54,0,.23.19.22.78.1.37-.25,1-.32.4-.89.86-.41.69-.46.54h-.16l-.18.46.05,1.16-.18,1-.07.41-.2.25-.11.84-.64.83-.11.66-.51.27-.15.39h-.68l-1,.25-.44.29-.71.18-.75.52-.53.64-.09.49.1.36-.12.66-.14.32-.44.37-.7,1.17-.56.53-.43.32-.29.64-.42.39-.17-.39.28-.32-.37-.46-.49-.37-.65-.43-.24,0-.63-.52-.41.07"/><path id="path150" class="cls-15" d="M215.59,226.8v1.86h.67l.38,0-.21.34-.54.27-.31,0-.37-.07-.46-.25-.66-.13-.8-.47-.65-.45-.87-.92.52.17.89.55.84.3.33-.38.2-.57.59-.33.45.09"/><path id="path152" class="cls-15" d="M215.85,204.73l.24.88.46-.08.08.16-.22.66-.69.32,0,1.08-.13.21.19.26-.45.4-.41.62-.23.6.06.64-.39.69.29,1.17.17.12v.63l-.36.67v.58l-.48.45v.64l.19.69-.38.26-.17.64-.15.73.11.89-.26.14.15.85.29.28-.21.32.29.15.07.28-.28.14.07.44-.23,1-.34.66.08.39-.2.49-.49.35.06.84.22.29.42-.05v.6l.26.47,1.53.11.59.13h-.57l-.3.2-.57.3-.1.77-.27,0-.71-.27-.73-.57h0l-.79-.47-.19-.52.18-.47-.32-.53-.08-1.35.27-.74.66-.6-1-.22.61-.67.21-1.25.7.26.33-1.53-.42-.2-.2.92-.4-.1.2-1.05.22-1.34.29-.49-.18-.69-.06-.79.27,0,.39-1.13.44-1.1.26-1-.14-1,.19-.55-.08-.81.37-.81.11-1.26.21-1.34.19-1.43,0-1-.13-.89.32-.16.17-.32.31.43.09.45.33.27-.2.61.34.71"/><path id="path166" class="cls-15" d="M211.32,191.56l-.27-.14-.31-.2-.18.09-.53-.08-.16-.26h-.12l-.63-.35-.08-.19.23,0,0-.31.15-.22.32,0,.26-.38.24-.32L210,189l.12-.35-.14-.56.13-.16-.1-.51-.25-.33.08-.3.2,0,.12-.18-.14-.36.07-.09.33,0,.47-.43.26-.07v-.2l.12-.52.36-.28.4,0,0-.12.49.05.5-.31.25-.14.3-.3.23,0,.16.16-.12.21-.41.1-.16.31-.24.18-.19.23-.07.43-.18.36.33,0,.08.28.14.14,0,.25-.08.22,0,.13.15.05.15.21.82-.06.36.08.45.53.25-.07.46,0,.36-.07.22.1-.11.33-.14.2-.05.44.13.4.17.19,0,.13-.32.3.23.14.16.21.2.61-.12.07-.13-.36-.17-.19-.21.21h-1.23v.38l.37.06,0,.23-.12-.06-.36.1v.44l.28.22.1.35,0,.27-.28,1.66-.32-.32h-.19l.41-.62-.48-.29-.38,0-.23-.1-.35.16-.47-.08-.37-.63-.29-.16-.21-.29-.42-.29-.17.06"/><path id="path168" class="cls-15" d="M206.52,186.46l-.34-.14-.13-.12.07-.11,0-.14-.17-.14-.25-.12-.22-.08,0-.18-.17-.11,0,.18-.12.14-.15-.17-.2-.06-.09-.12v-.19l.08-.19-.18-.09.15-.12.09-.08.42.17.14-.08.2,0,.11.12.19.05.15-.13.16.33.24.25.3.26-.25.05v.25l.13.09-.09.07,0,.11-.05.13,0,.12"/><path id="path170" class="cls-15" d="M207,177.12l.55,0h.5l.59.21.25.24.59-.07.23.15.53.39.4.29h.2l.38.13,0,.18.46,0,.48.26-.08.15-.42.08-.42,0-.44,0-.9.06.42-.35-.26-.16-.4,0-.22-.18-.15-.36-.36,0-.59-.17-.19-.13-.82-.1-.22-.12.23-.16-.62,0-.45.34h-.26l-.09.16-.32.07-.27-.06.34-.2.13-.23.29-.14.32-.12.48-.07.15-.07"/><path id="path186" class="cls-15" d="M213.64,179.33l.08-.1h.49l.38.16h.16l.12.22h.34l0,.18.28,0,.32.23-.24.25-.3-.13-.29,0-.21,0-.11.12-.25,0-.09-.16-.21.09-.25.43-.17-.1,0-.18v-.17l-.16-.18.16-.11,0-.24-.05-.35"/><path id="path190" class="cls-15" d="M208.21,193.54l.33-.45-.13-.27-.24.28-.38-.26.13-.18-.11-.55L208,192l.12-.38.24-.39,0-.25.35-.13.43-.24.63.35h.12l.16.26.53.08.18-.09.31.2.27.14.09.46-.19.4-.69.64-.76.24-.39.52-.12.42-.36.25-.26-.31-.26-.07-.26,0,0-.22.18-.15-.07-.25"/><path id="path210" class="cls-15" d="M220.29,226.16l.75-.48.54.2.38-.32.51.36-.19.28-.86.25-.28-.29-.54.37-.31-.37"/><path id="path212" class="cls-15" d="M225.75,190l-.24.23-.3,0-.09-.17-.14,0-.2.17-.27-.13.16-.26.05-.27.11-.26-.24-.36-.05-.42.32-.52.22.06.46.15.67.51.11.25-.37.56-.2.45"/><path id="path242" class="cls-15" d="M202,183.07l-.33-.11h-.39l-.29-.12-.34-.26v-.18l.08-.14-.09-.12.3-.51h.81l0-.21-.1,0-.07-.14-.24-.14-.23-.21h.28v-.35h1.18v.5l-.05.7h.19l.21.12,0-.1.19.08-.29.24-.3.17,0,.12.05.13-.14.15-.14,0,0,.07-.12.07L202,183v.09"/><path id="path244" class="cls-15" d="M221.2,186.37l.41.23.39.4,0,.31h.24l.34.3.25.22-.1.54-.39.16,0,.15-.12.31.28.44h.2l.09.35.38.52-.15,0-.35-.05-.21.16-.28.1-.2,0-.07.12-.31,0-.39-.29-.05-.28-.16-.31.1-.51.18-.22-.15-.28-.22-.09.09-.27-.15-.14-.33,0-.43-.47.17-.16v-.29l.39-.09.16-.12-.22-.23.06-.22.5-.36"/><path id="path246" class="cls-15" d="M203.77,183.53l-.11-.19-.19-.05.05-.25-.09-.07-.13,0L203,183l0-.08-.19-.1-.14-.12-.19-.06.14-.15-.05-.13,0-.12.3-.17.29-.24.06,0,.14-.11h.18l.06,0,.1,0,.29.05h.3l.2-.07.07-.07.21,0,.15,0h.16l.13-.05.29.08.1,0,.19.11.18.14.23.1.17.17h-.22l-.09.08-.21.08h-.16l-.14.08-.13,0-.11-.09-.06,0-.09.14h-.06v.13l-.22.17-.11.07-.07.08-.19-.13-.13.17h-.13l-.15,0v.3h-.09l-.08.14-.2,0"/><path id="path250" class="cls-15" d="M212.7,179.21l.39,0,.55.1.05.35,0,.24-.16.11.16.18v.17l-.42-.1-.3,0-.38,0-.3.11-.34-.19L212,180l.58.09.48,0,.23-.14-.29-.27v-.24l-.4-.1.14-.17"/><path id="path298" class="cls-15" d="M209.94,180.1l.42.06.34.15.1.17-.44,0-.19.1-.36-.1-.36-.23.08-.14.26,0,.15,0"/><path id="path346" class="cls-15" d="M197.56,175.39l-.24.57-.11.47-.05.86-.06.31.11.35.19.31.13.49.42.47.15.36.24.31.68.17.26.26.55-.17.48-.07.48-.11.4-.11.4-.25.15-.37,0-.53.11-.19.43-.17.67-.14.56,0,.38-.06.15.14,0,.3-.34.38-.15.39.12.11-.1.27-.16.49-.16-.16H203l-.23.38-.11-.08-.08,0v.09h-1.18v.35h-.28l.23.21.24.14.07.14.1,0,0,.21H201l-.3.51.09.11-.08.15v.18l-.72-.67-.32-.2-.52-.16-.35,0-.51.24-.32.06-.45-.17-.47-.11-.59-.29-.48-.09-.71-.29-.53-.3-.16-.17-.35,0-.65-.2-.26-.29-.68-.36-.32-.39-.15-.31.21-.06-.06-.19.14-.16v-.22l-.21-.29-.06-.25-.21-.32-.56-.64-.63-.5-.31-.41-.54-.26-.12-.16.1-.4-.32-.15-.38-.32-.15-.46-.34-.05-.37-.35-.3-.32,0-.21-.34-.5-.22-.51v-.25l-.46-.27-.21,0-.36-.19-.1.28.1.32.07.5.21.27.47.46.11.16.09,0,.09.23h.11l.12.42.2.17.13.23.4.34.21.6.19.29.17.3,0,.34.3,0,.25.29.23.29v.11l-.27.24h-.11l-.17-.39-.41-.37-.46-.31-.32-.16,0-.48-.09-.35-.31-.2-.43-.29-.08.08-.16-.17-.39-.16-.38-.38.05-.05.26,0,.24-.25,0-.29-.49-.47-.37-.19-.23-.41-.24-.44-.29-.54-.26-.6.72,0,.81-.08-.06.13,1,.33,1.44.48h1.76v-.28h1.1l.23.24.32.21.38.3.21.35.16.36.32.2.53.2.4-.52.51,0,.45.27.31.45.22.39.38.37.14.46.17.31.5.2.44.14.25,0"/><path id="path376" class="cls-15" d="M204.79,184.7l-.22-.19-.3-.25-.14-.21-.26-.19-.32-.28.07-.1.1.1.05-.05.2,0,.08-.14h.09v-.3l.15,0h.13l.13-.17.19.13.07-.08.11-.07.22-.17v-.13h.06l.09-.14.06,0,.11.09.13,0,.14-.08h.16l.21-.08.09-.08h.22l-.06.06,0,.14.07.22-.15.21-.07.25,0,.28,0,.16v.27l-.09.06-.06.27,0,.16-.13.16,0,.16.1.11-.15.13-.19-.05-.11-.12-.2,0-.14.08-.42-.17-.09.08"/><path id="path400" class="cls-15" d="M209.74,187.07l-.21-.17-.14-.33.16-.17-.16,0-.12-.2L209,186l-.27,0-.13.21-.26.15-.13,0-.07.13.31.33-.18.08-.09.09-.29,0-.11-.36-.08.1-.21,0-.13-.25-.26,0-.16-.07h-.27l0,.13-.08-.09,0-.12.05-.13,0-.11.1-.07-.13-.09v-.25l.25-.05.23.22,0,.13.26,0,.05-.05.18.15.31-.05.27-.15.38-.13.22-.18.35,0,0,.06.36,0,.28.1.2.19.24.17-.07.09.14.36-.12.18-.2,0-.08.3"/><path id="path402" class="cls-15" d="M215,202.26l-.17.32-.32.16-.64-.36,0-.25-1.26-.63-1.13-.68-.49-.38-.26-.52.1-.17-.53-.82-.62-1.13-.6-1.22-.26-.28-.2-.45-.49-.4-.45-.25.2-.27-.3-.58.19-.43.51-.38.07.25-.18.15,0,.22.26,0,.26.07.26.31.36-.25.12-.42.39-.52.76-.24.69-.64.19-.4-.09-.46.17-.06.42.29.21.29.29.16.37.63.47.08.35-.16.23.1.38,0,.48.29-.41.62h.19l.32.32-.57,0-.09.1-.51.11-.73.42,0,.28-.16.21.06.33-.38.18v.26l-.17.11.26.55.35.37-.13.27.42,0,.24.33.56,0,.52-.37,0,.94.29.07.36-.11.55,1-.14.21,0,.44v.52l-.25.31.11.23-.14.21.27.53-.4.67"/><path id="path428" class="cls-15" d="M217.07,180.09l.33,0,.11.13-.16.16h-.48l-.37,0,0-.27.08-.09h.52"/><path id="path434" class="cls-15" d="M219.35,205.21l.25-.76v-.34l.3-.56,1.11-.18h.58l.59.32v.2l.19.35,0,.86.67.13.25-.13.43.17.12.19.06.59.07.25.24,0,.24-.11.22.12v.35l-.08.39-.13.37-.1.58-.57.5-.5.1-.71-.1-.64-.18.62-1-.09-.28-.65-.26-.77-.47-.52-.1-1.16-1"/><path id="path492" class="cls-15" d="M203.47,183.29l-.07.14H203l-.22-.06-.26-.12-.36,0-.17-.13,0-.09.21-.16.12-.07,0-.07.14,0,.19.06.14.12.19.1,0,.08.28-.07.13,0,.09.07-.05.25"/><path id="path500" class="cls-15" d="M222.85,187.84l.76.12.06-.11.51,0,.68.17-.32.52.05.42.24.36-.11.26-.05.28-.16.25-.37-.12-.29.06-.26-.06-.06.18.1.12,0,.12-.35-.05-.38-.52-.09-.35h-.2l-.28-.44.12-.31,0-.15.39-.16.1-.54"/><path id="path524" class="cls-15" d="M220,184.91l.37-.08.13,0,0,.45-.52.07-.12-.05.18-.17v-.24"/><path id="path540" class="cls-15" d="M222.55,210.4l.41-.07.63.52.24,0,.65.43.49.37.37.46-.28.32.17.39-.27.43-.71.38-.47-.14-.34.08-.59-.3-.43,0-.38-.38.05-.44.14-.15v-.67l.17-.69.16-.54"/><path id="path564" class="cls-15" d="M213.88,184.28l0,.15-.37.07.21.28v.32l-.28.35.24.49.27,0,.14-.44-.19-.22,0-.46.78-.25-.08-.29.22-.2.22.43h.45l.41.35,0,.2h.57l.68-.07.36.28.48.07.36-.19V185l.79,0h.76l-.54.18.21.29.51,0,.48.3.1.49H221l.25.14-.5.36-.06.22.22.23-.16.12-.39.09v.29l-.17.16.43.47.08.17-.23.23-.7.23-.46.09-.18.15-.5-.16-.47-.07L218,189l.28.16,0,.41.08.38.54.05,0,.13-.45.17-.07.26-.26.1-.47.14-.12.19-.5,0-.34-.32-.2-.61-.16-.21-.23-.14.32-.3,0-.13-.17-.19-.13-.4.05-.44.14-.2.11-.33-.22-.1-.36.07-.46,0-.25.07-.45-.53-.36-.08-.82.06-.15-.21-.15-.05,0-.13.08-.22,0-.25-.14-.14-.08-.28-.33,0,.18-.36.07-.43.19-.23.24-.18.16-.31.41-.1"/></g><text class="cls-3" transform="translate(189.69 112.7)"><tspan class="cls-11">A</tspan><tspan x="13.37" y="0">sia </tspan><tspan x="-15.71" y="26.47">O</tspan><tspan class="cls-5" x="-0.52" y="26.47">r</tspan><tspan x="6.78" y="26.47">ie</tspan><tspan class="cls-10" x="22.99" y="26.47">n</tspan><tspan x="35.14" y="26.47">tal</tspan></text><text class="cls-3" transform="translate(170.71 254.01)"><tspan class="cls-16">A</tspan><tspan x="13.43" y="0">mé</tspan><tspan class="cls-5" x="42.87" y="0">r</tspan><tspan class="cls-13" x="50.17" y="0">ica </tspan><tspan x="9.78" y="26.47">L</tspan><tspan class="cls-10" x="20.19" y="26.47">a</tspan><tspan class="cls-13" x="30.73" y="26.47">tina </tspan><tspan x="-7.4" y="52.93">y el </tspan><tspan class="cls-4" x="28.59" y="52.93">C</tspan><tspan x="41.23" y="52.93">a</tspan><tspan class="cls-5" x="51.86" y="52.93">r</tspan><tspan class="cls-13" x="59.16" y="52.93">ibe</tspan></text><g id="Central_Asia" data-name="Central Asia"><path id="path22" class="cls-17" d="M187.37,352.16,189,352l.24.35.45.24-.24.33.63.46-.34.43.5.36.53.22,0,.91-.43,0-.48-.76v-.21h-.52L189,354l-.24,0-.47-.39-.87-.33.11-.66-.2-.47"/><path id="path48" class="cls-17" d="M189,354l.35.36h.52v.21l.48.76-.8-.17-.6-.61-.18-.5.24,0"/><path id="path50" class="cls-17" d="M191.83,352l.52.09.2-.34.7-.55.62.71.6,1,.55.06.36.36-1,.11-.2,1-.21.47-.43.3,0,.66-.29.06-.73-.69.4-.65-.34-.39-.45.1-1.38,1,0-.91-.53-.22-.5-.36.34-.43-.63-.46.24-.33-.45-.24L189,352l.28-.22.88.39.63.08L191,352l-.58-.73.31-.19.33.05.81.82"/><path id="path224" class="cls-17" d="M185,351.56l.17-.58-.29-.92-.68-.51-.65-.16-.43-.42.14-.16,1,.24,1.73.22,1.6.66.21.25.71-.21,1.1.28.36.56.74.31-.31.19.58.73-.16.16-.63-.08-.88-.39L189,352l-1.64.21-1.13-.66-1.25.06"/><path id="path308" class="cls-17" d="M219.56,350.57l-.67.25-1.55.95-.52,1h-.44l-.32-.64-1.49,0-.24-1.11h-.58l.09-1.37-1.41-1-2,.11-1.38.2-1.12-1.25-1-.52-1.83-1-.22-.12-3,.83,0,5.06-.6.07-.82-1.07-.8-.38-1.33.29-.52.45-.07-.33.29-.57-.22-.47-1.37-.47-.53-1.24-.65-.35,0-.45,1.14.13,0-1,1-.23,1,.21.21-1.37-.21-.88-1.17.07-1-.35-1.36.63-1.1.3-.6-.23.12-.74-.75-.95-.87,0-1-1,.68-1.1-.34-.3L192,339l1.2.86.15-1.08,2.43-1.63,1.83,0,2.6,1,1.39.6,1.24-.63,1.87,0,1.5.77.34-.44,1.66.07.29-.71-1.91-1,1.13-.74-.22-.42,1.13-.39-.85-1.06.54-.53,4.4-.54.58-.38,2.94-.58,1.05-.65,2.12.34.37,1.62L221,333l1.51.53-.09.84,1.13-.09,2.94-1.46-.43.49,1.5,1.19,2.63,3.85.63-.78,1.61.86,1.69-.39.65.27.57.86.82.29.5.62,1.52-.19.62.89-.89,1-1,.14-.06,1.44-.65.65-2.33-.47-.85,2.54-.6.31-2.33.56,1.06,2.4-.81.36.09.78-.72-.2-.59-.49-1.75-.14-2,0-.42.15-1.68-.58-.66.29-.19.8-1.93-.47-.78.2-.26.59"/><path id="path312" class="cls-17" d="M219.56,350.57l.26-.59.78-.2,1.93.47.19-.8.66-.29,1.68.58.42-.15,2,0,1.75.14.59.49.72.2-.16.31-1.86.73-.41.54-1.51.16-.45.85-1.24-.18-.81.26-1.13.63.17.32-.34.3-2.22.2-1.45-.43-1.28.1.11-.76,1.28.22.43-.41.9.13,1.5-1-1.39-.71-.84.33-.87-.51,1-.87-.35-.14"/><path id="path518" class="cls-17" d="M219.62,353.3l-.43.41-1.28-.22-.11.76,1.28-.1,1.45.43,2.22-.2.3,1.22.39-.13.71.3,0,.51.17.74h-1.21l-.81-.09-.73.58-.52.13-.41.27-.47-.42.11-1.1-.35-.06.12-.4-.63-.3-.51.46-.12.52-.18.2-.71,0-.38.59-.39-.25-.85.42-.36-.16.66-1.32-.25-1-.87-.31.31-.59,1,.06.56-.73.37-.86,1.57-.31L219,353l.17.37.48,0"/><path id="path520" class="cls-17" d="M208.1,359.32l-.11-1.09-.87-.05L205.77,357l-.94-.14-1.3-.66-.83-.12-.52.24-.78,0-.84.75-1,.25-.22-.92.17-1.38-.92-.44.3-.91-.78-.08.26-1.13,1.11.33,1-.43-.85-.81-.34-.77-.94.34-.12,1-.37-.87.52-.45,1.33-.29.8.38.82,1.07.6-.07,1.33,0-.19-.68,1-.47,1-.79,1.59.72.12,1.08.45.28,1.27-.06.4.24.57,1.38,1.35.92.77.62,1.23.65,1.56.56,0,.8-.36,0-.55-.35-.19.46-1,.26-.23,1-.66.4-.93.19-.25.58-.88.17-1.2-.48"/><path id="path562" class="cls-17" d="M214.34,357.1l0-.8-1.56-.56-1.23-.65-.77-.62-1.35-.92-.57-1.38-.4-.24-1.27.06-.45-.28-.12-1.08-1.59-.72-1,.79-1,.47.19.68-1.33,0,0-5.06,3-.83.22.12,1.83,1,1,.52,1.12,1.25,1.38-.2,2-.11,1.41,1-.09,1.37h.58l.24,1.11,1.49,0,.32.64h.44l.52-1,1.55-.95.67-.25.35.14-1,.87.87.51.84-.33,1.39.71-1.5,1-.9-.13-.48,0L219,353l.24-.62-1.57.31-.37.86-.56.73-1-.06-.31.59.87.31.25,1-.66,1.32-.89-.27h-.65"/></g><text class="cls-3" transform="translate(189.69 412.27)"><tspan class="cls-11">A</tspan><tspan x="13.37" y="0">sia </tspan><tspan class="cls-18" x="-11.71" y="26.47">C</tspan><tspan class="cls-13" x="0.84" y="26.47">e</tspan><tspan class="cls-19" x="11.89" y="26.47">n</tspan><tspan class="cls-13" x="24.04" y="26.47">t</tspan><tspan class="cls-20" x="31.34" y="26.47">r</tspan><tspan x="38.44" y="26.47">al</tspan></text><g id="Western_Asia" data-name="Western Asia"><path id="path16" class="cls-21" d="M438.2,199.37l.24-.07.05.37,1-.21,1.1,0,.8,0,.91-.91,1-.88.84-.84.26.47.18,1.08h-.68l-.11.88.24.19-.61.27v.55l-.39.56,0,.54-.27.29-4-.68-.51-1.37-.05-.31"/><path id="path172" class="cls-21" d="M413.13,184.13h.1l.19-.35,1,0,1.21-.43-.9.62.09.27-.14-.05-.25.11-.2,0-.07.05,0-.14-.1-.09-.26,0-.36.13-.25-.08"/><path id="path284" class="cls-21" d="M441.32,181.12l1.16-.28.95-.85.89,0,.58-.27,1,.13,1.47.75,1.06.17,1.52,1.3,1,0,.12,1.23-.54,1.8-.37,1.05.58.21-.57.78.44,1.14.1.9,1,.24.11.9-1.21,1.28.66.73.54.84,1.27.61,0,1.22.63.22.11.63-1.92.71-.5,1.59-2.5-.42-1.45-.31-1.5-.18-.57-1.68-.64-.24-1,.25-1.34.66-1.62-.45-1.35-1.06-1.28-.4-.89-1.31-1-1.86-.71.23-.85-.47-.49.55-.74-.74v-.75H433l.22-1-.68-1.08-1.63-.78-.93-1.36.31-1.12.67-.5-.1-.85-.87-.44-.86-1.75-.73-1.18.26-.46-.41-1.71.91-.43.21.57.67.69.91.2.48-.05,1.57-1.1.5-.11.39.44-.46.74.83.78.33-.08.43,1.1,1.26.3.92.74,1.89.25,2.08-.38.13-.35"/><path id="path394" class="cls-21" d="M447.89,203.58l-.5.91-.6-.07-.28.32-.21.68.16.88-.13.17h-.61l-.83.5-.13.64-.3.28h-.83l-.52.33v.53l-.65.37-.73-.13-.89.45-.62.07-.43-.92-1-2.18,4-1.32.89-2.68-.61-.95,0-.54.39-.56v-.55l.6-.27-.23-.19.11-.88h.68l.59.93.75.49,1,.18.79.25.6.77.36.45.47.17v.3l-.48.8-.21.37-.56.43"/><path id="path438" class="cls-21" d="M437.18,198.68l-.09-1,.36-.72.36-.15.4.43,0,.8-.29.8-.37.1-.4-.27"/><path id="path472" class="cls-21" d="M426.5,209.89l-.18-.56-.4-.4-.1-.52-.69-.47-.71-1.11-.37-1.08-.92-.92-.59-.22-.88-1.27-.16-.93.06-.79-.76-1.5-.63-.53-.72-.28-.43-.77.07-.31-.37-.71-.39-.3-.52-1-.81-1.11-.68-1h-.66l.21-.76.06-.49.16-.55,1.48.22.58-.43.31-.51,1-.19.22-.47.44-.24-1.33-1.4,2.67-.71.25-.22,1.6.39,2,1,3.75,2.82,2.48.11,1.18.14.33.66.94,0,.52,1.2.66.31.23.49.9.57.08.57-.13.46.17.45.38.39.18.44.2.34.4.27.37-.1.25.52.05.31.51,1.37,4,.68.27-.29.61.95-.89,2.68-4,1.32-3.83.51-1.25.59-.95,1.39-.62.22-.33-.44-.51.07-1.29-.14-.24-.13-1.54,0-.36.12-.54-.34-.36.65.14.55-.58.42"/><path id="path510" class="cls-21" d="M421.19,186.67l-2.6,1.52-1.48-.57h0l.18-.21,0-.59.33-.78.72-.55-.21-.56-.6-.07-.13-1.11.33-.6.36-.32.35-.32.07-.82.44.29,1.46-.41.71.28h1.09l1.54-.55.71,0,1.51-.22-.68.91-.72.36.12,1.07-.5,1.75-2.95,1.5"/><path id="path528" class="cls-21" d="M418.69,174.92l1.91.59,1.55-.23,1.15.13,1.57-.79,1.41-.07,1.29.74.22.54-.13.74,1,.37.53.44-.91.43.41,1.71-.26.46.73,1.18-.64.25L428,181l-1.54-.19-.58.23-1.51.22-.71,0-1.54.55h-1.09l-.71-.28-1.46.41-.44-.29-.07.82-.35.32-.36.32-.49-.66.5-.55-.81.12-1.11-.34-.91.85-2,.16-1.08-.78-1.43-.05-.31.61-.92.17-1.29-.78-1.45,0-.79-1.47-1-.82.65-1.16-.84-.71,1.47-1.45,2.05-.06.56-1.15,2.53.2,1.6-1,1.55-.43,2.2,0,2.32,1.07"/><path id="path572" class="cls-21" d="M440.23,209.49l-1,.35-.25.59,0,.44-1.32.56-2.13.61-1.19.92-.58.07-.4-.08-.78.54-.85.25-1.11.07-.34.07-.29.35-.35.09-.2.33-.66,0-.43.18-.92-.07-.34-.76,0-.71-.21-.38-.26-1-.39-.53.27-.07-.14-.6.17-.25-.06-.57.58-.42-.14-.55.36-.65.54.34.36-.12,1.54,0,.24.13,1.29.14.51-.07.33.44.62-.22.95-1.38,1.25-.6,3.83-.51,1,2.18.43.92"/><path id="path396" class="cls-21" d="M444.6,197.12l-.17.25-.26-.47.39-.46.17.12-.13.56"/><path id="path286" class="cls-21" d="M430,182.91l.87.44.1.85-.67.5-.31,1.12.93,1.36,1.63.78.68,1.08-.22,1h.43v.75l.74.74-.79-.07-.9-.12-1,1.34-2.48-.11-3.75-2.82-2-1-1.6-.39-.54-1.73,2.95-1.5.5-1.75-.12-1.07.72-.36.68-.91.58-.23L428,181l.47.37.64-.25.86,1.75"/><path id="path290" class="cls-21" d="M417.11,187.62l-.23.45-.49-.2-.27.95.33.16-.34.19-.06.37.63-.19,0,.55-.66,2.24-.88-2.41.39-.46-.09-.08.35-.66.27-1.08.19-.36h.48l.13-.25.35,0,0,.59-.18.21h0"/><path id="path300" class="cls-21" d="M416.88,188.07l.23-.45,1.48.57,2.6-1.52.54,1.73-.25.22-2.67.71,1.33,1.4-.44.24-.22.47-1,.19-.31.51-.58.43-1.48-.22,0-.21.66-2.24,0-.55.2-.41v-.87"/><path id="path324" class="cls-21" d="M417.24,186.81l-.35,0-.13.25h-.44l.47-1.17.66-1,0-.05.6.07.21.56-.72.55-.33.78"/><path id="path174" class="cls-21" d="M414.78,184.25l.05.11-1.37.59-.65-.19-.31-.58.63-.05.25.08.36-.13.26,0,.1.09,0,.14.07-.05.2,0,.25-.11.14.05"/><path id="path436" class="cls-21" d="M416.88,188.07v.87l-.2.41-.63.19.06-.37.34-.19-.33-.16.27-.95.49.2"/><path id="path320" class="cls-21" d="M433.41,191.48l.27.62-.12.32.43,1-.94,0-.33-.66-1.18-.14,1-1.34.9.12"/></g><g id="Northern_Europe" data-name="Northern Europe"><path id="path198" class="cls-22" d="M468,73.35l.17-1.25-.55.27-1-.75-.13-1.24,1.92-.6,1.91-.31,1.65.36,1.57-.07.22.38-1.08,1.24.45,2-.65.66h-1.25l-1.3-.78-.67-.26-1.29.37"/><path id="path202" class="cls-22" d="M474.45,47.26,474.23,49l2.33,1.67-1.4,1.87,1.76,2.76-1,2,1.36,1.75-.62,1.51,2.25,1.58-.57,1.15-1.41,1.31-3.25,2.83-2.75.18-2.67.8-2.47.46-.88-1.19L463.42,67l.34-2.19-.74-2,.72-1.33L465.12,60l3.47-2.54,1-.5-.16-1-2.11-1.13-.51-.94-.05-3.8-2.36-1.72-2-1.25.91-.67L465,47.83l2-.13,1.63.62,1.45-1.13.74-1.89,2.36-.88,2,1-.65,1.81"/><path id="path334" class="cls-22" d="M465.56,80.49l-.12-.52.16-.55-.67-.32-1.59-.36L463,77l1.73-.63,2.55.13,1.49-.2.21.43.81.13,1.46,1,.14.91-1.24.65-.35,1.14-1.65.75H466.7l-.36-.62-.78-.21"/><path id="path338" class="cls-22" d="M463,77l.05-1.55.74-1.31,1.43-.72L466.45,75l1.22,0,.29-1.61,1.29-.37.67.26,1.3.78h1.25l.74.49.12,1,.49,1.22-1.63.79-.92.35-1.46-1-.81-.13-.21-.43-1.49.2-2.55-.13L463,77"/><path id="path380" class="cls-22" d="M473.81,41.71l4.74,1.94-1.95.71L478.26,46l-2.58,1-1.23.24.65-1.81-2-1-2.36.88-.74,1.89-1.45,1.13L467,47.7l-2,.13-1.69-1.35-.91.67-.94.11-.22,1.67-2.86-.4-.4,1.4h-1.46l-1,1.77L454,54.41l-2.36,3.36.56.8-.53.93-1.51,0-1,2.17.09,3,1,1.13-.5,2.6-1.27,1.48-.66,1.24-1-1.32-3,2.48-2,.5-2.1-1.08-.54-2.32-.48-5.09L440,62.8l4-1.92,3-2.4,2.78-3.32,3.64-4.73L456,48.54l4.17-3.22,3.33-1.14,2.5.14,2.31-2.19,2.77.11,2.73-.53"/><path id="path506" class="cls-22" d="M464.73,55.54l-1.48,1.66.24,1.45-2.41,1.87-2.93,2L457,65.67l1.08,1.56,1.45,1.21-1.39,2.45-1.58.5L456,74.93l-.86,1.94-1.84-.2-.86,1.63-1.76.09-.48-1.93L449,74.09l-1.15-3,.66-1.24,1.27-1.48.5-2.6-1-1.13-.09-3,1-2.17,1.51,0,.53-.93-.56-.8L454,54.41l1.52-2.72,1-1.77H458l.4-1.4,2.86.4.22-1.67.94-.11,2,1.25,2.37,1.72,0,3.8.51.94-2.61.68"/><path id="path182" class="cls-22" d="M450.32,77.89l-.91,1.64-1.59-1.14-.21-.85,2.22-.68.49,1"/><path id="path184" class="cls-22" d="M447.62,76.14l-.37.78-.45-.22-1.09,1.47.41,1-1,.31L444,79.21l-.62-1.13,0-2.11.25-.56.44-.62,1.33-.13.54-.58,1.22-.59-.05,1.08-.45.68.18.58.82.31"/><path id="path288" class="cls-22" d="M409,53.77l-.35,1.57L410.4,57l-2,1.79-4.38,1.6-1.3.42-2-.34-4.24-.73,1.5-1-3.31-1.16,2.69-.46-.06-.69-3.19-.56,1-1.57,2.3-.36,2.36,1.64,2.31-1.31,1.91.68,2.47-1.29,2.52.17"/></g><text class="cls-3" transform="translate(393.81 112.7)">No<tspan class="cls-23" x="26.62" y="0">r</tspan><tspan class="cls-11" x="34.36" y="0">t</tspan><tspan x="41.53" y="0">e de </tspan><tspan class="cls-8" x="10.14" y="26.47">E</tspan><tspan x="20.84" y="26.47">u</tspan><tspan class="cls-9" x="32.99" y="26.47">r</tspan><tspan x="39.98" y="26.47">opa</tspan></text><g id="Australia_and_New_Zealand" data-name="Australia and New Zealand"><path id="path42" class="cls-24" d="M435.9,367.47l1.12.46.63-.18.9-.26.69.09.08,1.58-.39.46-.12,1.08-.4-.37-.81.94-.24-.07-.71-.05-.71-1.15-.16-.88-.66-1.16,0-.6.75.11"/><path id="path44" class="cls-24" d="M433.78,334.9l.42.89.74-.43.38.48.56.45-.12.5.24,1,.18.56.29.14.31,1-.11.59.38.78,1.25.6.81.55.78.51-.15.28.66.72.45,1.26.46-.25.46.5.29-.18.2,1.24.82.72.53.45.9,1,.33.95,0,.68-.08.74.55,1-.07,1.07-.2.56-.31,1.08,0,.7-.22.88-.51,1.12-.86.61-.42,1-.39.62-.34,1.08-.44.63-.3.95-.15.88.06.4-.66.45-1.29,0-1.07.53-.53.5-.69.56-1-.58-.71-.22.18-.68-.63.25-1,.93-1-.35-.65-.2-.66-.09-1.12-.38-.75-.79-.21-1-.27-.64-.57-.51-1.11-.16.38-.61-.28-.93-.56.87-1,.23.6-.69.18-.73.44-.61-.09-.92-.94,1.06-.72.43-.44,1-.9-.51,0-.66-.72-.91-.61-.46.22-.29-1.48-.74-.81,0-1.11-.6-2.07.12-1.5.44-1.31.41-1.1-.08-1.23.63-1,.29-.22.65-.43.5-1,0-.72.11-1-.22-.83.13-.79.06-.69.67-.34-.06-.58.35-.55.4-.84-.05h-.78l-1.22-.8-.62-.23,0-.72.57-.17.2-.28,0-.45.14-.86-.13-.72-.61-1.24-.19-.7.05-.69-.46-.78,0-.36-.51-.48-.14-.94-.66-.94-.16-.51.5.52-.38-1.1.57.34.34.46,0-.61-.57-.93-.11-.37-.27-.36.13-.68.23-.28.16-.59-.12-.68.47-.84.09.89.49-.81.94-.38.56-.5.88-.42.53-.1.31.15.91-.43.7-.13.18-.26.31-.1.63,0,1.22-.34.62-.51.3-.62.68-.58.05-.46,0-.62.81-1,.48,1,.49-.23-.41-.54.37-.55.5.24.15-.86.63-.56.27-.45.59-.19v-.32l.51.13,0-.28.51-.16.56-.16.85.52.64.68H417l.74.11-.25-.62.56-.91.52-.3-.18-.28.5-.64.7-.4.59.13,1-.21,0-.57-.85-.37.62-.17.76.28.61.46,1,.29.33-.11.71.34.68-.32.43.1.27-.22.53.56-.31.6-.44.46-.39,0,.13.45-.34.56-.41.56.09.32.91.63.89.36.6.39.83.68H428l.6.29.18.35,1.1.39.76-.39.23-.61.23-.51.15-.62.35-.91-.16-.54.08-.33-.13-.65.15-.85.22-.23-.18-.38.28-.59.22-.62,0-.32.42-.42.33.55.08.7.29.14.05.47.42.57.08.64,0,.41"/><path id="path390" class="cls-24" d="M467.8,367.64l.26.55.82-.54.33.56v.56l-.43.61-.76,1-.59.54.43.66H467l-1,.51-.31.9-.66,1.39-.91.62-.57.4-1.06,0-.75-.46-1.26-.1-.19-.51.62-1,1.45-1.35.75-.25.83-.52,1-.7.69-.7.51-1,.44-.33.17-.74.81-.61.26.56"/><path id="path392" class="cls-24" d="M469.63,361.48l.84,1.34,0-.87.52.35.17,1,.93.41.78.11.66-.49.58.15-.28,1.14-.35.76-.88,0-.31.39.11.57-.17.24-.44.71-.57.9-.89.53-.2-.35-.48-.19.67-1.08-.38-.73-1.25-.52,0-.47.83-.45.2-1-.06-.83-.46-.85,0-.23-.56-.52-.9-1.12-.49-.89.43-.1.63.7.9.33.32,1.12"/></g><text class="cls-3" transform="translate(386.57 412.27)"><tspan class="cls-25">A</tspan><tspan class="cls-26" x="13.23" y="0">ust</tspan><tspan class="cls-20" x="41.42" y="0">r</tspan><tspan x="48.52" y="0">alia y </tspan><tspan x="18.17" y="26.47">Nue</tspan><tspan class="cls-19" x="55.89" y="26.47">v</tspan><tspan class="cls-13" x="66.41" y="26.47">a </tspan><tspan class="cls-27" x="12.88" y="52.93">Z</tspan><tspan x="24.81" y="52.93">elanda</tspan></text><text class="cls-3" transform="translate(415.23 254.01)"><tspan class="cls-11">A</tspan><tspan x="13.37" y="0">sia </tspan><tspan class="cls-28" x="-28.14" y="26.47">O</tspan><tspan class="cls-29" x="-12.86" y="26.47">c</tspan><tspan class="cls-26" x="-3.11" y="26.47">cide</tspan><tspan class="cls-10" x="35.42" y="26.47">n</tspan><tspan x="47.57" y="26.47">tal</tspan></text><g id="Southern_Europe" data-name="Southern Europe"><path id="path196" class="cls-30" d="M281.39,59.72l.11-1.86-.92-1.14,3.19-1.9,2.76.47h3l2.41.45,1.87-.14,3.65.09.9,1,4.15,1.2.82-.57,2.54,1.18,2.62-.34.12,1.52-2.14,1.73-2.89.54-.2.87L302,64.26l-.87,2.07.88,1.45-1.3,1.13-.49,1.63-1.71.5L296.93,73l-2.86,0-2.15,0-1.42.88-.86.94-1.1-.21-.84-.84-.64-1.43L285,71.91l-.18-.83.83-.94.31-.69-.78-.74.63-1.67-.91-1.52,1-.21.09-1.21.37-.38,0-2,1.05-.7-.63-1.31-1.32-.09L285,60h-1.33l-.56-1.27-.93.38-.81.66"/><path id="path432" class="cls-30" d="M281.39,59.72l.81-.66.93-.38.56,1.27H285l.39-.33,1.32.09.63,1.31-1.05.7,0,2-.37.37-.09,1.21-1,.21.91,1.52-.63,1.67.78.75-.31.68-.83.94.18.83-.9.65-1.19-.36-1.17.28.35-2L281.83,69l-1-.24-.54-.95.18-1.67.89-.92.17-1,.47-1.55-.05-1.09-.46-.93-.09-.88"/><path id="path236" class="cls-30" d="M355.28,75.37l1.23.83,1.76-.14,1.68.17-.06.43,1.23-.29-.28.72-3.25.21,0-.41-2.75-.48.42-1"/><path id="path238" class="cls-30" d="M361.83,60.55l-.7,1.62-.53.29-1.38-.08L358,62.14l-2.73.67,1.56,1.44-1.14.42h-1.26l-1.19-1.32-.43.56.51,1.53,1.13,1.2-.85.55,1.25,1.17,1.12.73,0,1.42L354,69.85l.66,1.28-1.43.26.85,2.2-1.5,0-1.85-1.08-.84-2-.4-1.68-.88-1.16-1.15-1.44-.16-.73,1.05-1.24.14-.83.73-.38.05-.67,1.47-.23.86-.57,1.23,0,.37-.45.43-.08,1.67.07,1.81-.71,1.59.91,2-.25,0-1.29,1.1.69"/><path id="path292" class="cls-30" d="M336.81,69.06,336,71l.34.78-.48,1.28-1.72-.94L333,71.89l-3.15-1.27.32-1.29,2.64.23,2.3-.28,1.71-.22"/><path id="path294" class="cls-30" d="M322.57,61.46l1.35,1.83-.31,3.38-1-.16-.92.85-.86-.68-.09-3.08-.51-1.47,1.24.13,1.13-.8"/><path id="path296" class="cls-30" d="M329.72,46.7l3.22.7-.24,1.34.54,1.15-1.8-.39-1.83,1,.12,1.33-.27.76.74,1.36,2.11,1.33,1.14,2.18L336,59.53l1.77,0,.55.58-.63.51,2,.94,1.65.78,1.94,1.34.23.48-.42.92-1.25-1.2-2-.42-.95,1.66,1.63.94-.27,1.33-.94.15-1.21,2.16-.94.2v-.77l.46-1.36.49-.54-.88-1.47-.69-1.29-.93-.32L335,63l-1.45-.47-1-1-1.67-.17-1.76-1.17L327,58.48,325.51,57l-.71-2.61-1.12-.31-1.84-.87-1,.36-1.31,1.23-.94.19.26-1.15-1.22-.34L317,51.4l.78-.81-.67-1,.1-.76,1,.58,1.09-.13,1.26-.92.39.43,1.08-.08.49-1.1,1.67.34,1-.46.18-1.12,1.37.39.26-.52,2.23-.47.51,1"/><path id="path530" class="cls-30" d="M363.16,62.8l-1.88,1.38L360.57,63l0-.53.53-.29.7-1.62-1.1-.69L363,59l2,.35.26,1,2,.84-.41.63-2.68.14-1,.8"/></g><g id="Northern_America" data-name="Northern America"><path id="path94" class="cls-31" d="M338.23,194.68l-.28.47.28-.18.28.12-.15.18.38.15.2-.13.42.16-.13.39.3-.09.05.28.13.32-.17.45-.2,0-.28-.09.1-.43-.12-.06-.5.45-.25,0,.3-.24-.41-.13-.46,0-.82,0-.07-.15.27-.18-.19-.15.36-.31.44-.85.26-.31.37-.19.2,0-.08.15-.23.34"/><path id="path98" class="cls-31" d="M328.38,188l-.16.33-.19-.06-.11-.18,0,0,.16-.19.17,0,.11.13"/><path id="path100" class="cls-31" d="M327.26,187.65l-.5.36-.3,0-.09-.17.32-.3h.58v.12"/><path id="path102" class="cls-31" d="M325.87,185.72l.08.3.22-.1.25.17.46.23.49.2,0,.32.31-.06.31.22-.38.2-.66-.15-.24-.29-.43.34-.6.34-.15-.38-.57.06.37-.32.05-.52.14-.61.31.05"/><path id="path104" class="cls-31" d="M329.83,184.71l-.48,0-.1-.34.18-.39.39-.1.33.2v.3l0,.09-.28.21"/><path id="path106" class="cls-31" d="M321.41,183.33l-.27.25-.57-.22-.35.08-.58-.32.38-.23.29-.32.46.21.25.13.13.14.26.28"/><path id="path108" class="cls-31" d="M323.58,183v.74l.57-.56.51.46-.13.52.41.47.44-.5.32-.61,0-.8.6.06.63.11.57.36,0,.35-.32.38.3.38,0,.33-.83.48-.6.11-.44-.21-.12.34-.41.57-.13.29-.49.45-.61,0-.34.28,0,.42-.49.08-.52.51-.46.71-.17.48,0,.71.62.1.2.56.19.44.6-.11.79.25.43.22.3.27.53.16.46.24.7,0,.46.05-.07.49.13.57.31.61.64.52.32-.18.23-.56-.22-.88-.3-.29.68-.27.49-.4.23-.41,0-.39-.29-.5-.52-.45.5-.63-.18-.56-.14-1,.29-.14.73.17.44.06.35-.16.4.21.52.36.13.25.76,0v.52l.14.77.39.1.31.35.61-.33.41-.67.28-.29.33.55.56.76.47.71-.17.37.56.32.39.33.68.15.27.18.17.47.33.08.17.21,0,.62-.31.21-.3.19-.7.19-.54.44-.72.09-.91-.11h-.64l-.44,0-.36.38-.54.24-.61.69-.49.48.36-.09.68-.68.89-.44.64,0,.38.26-.4.35.13.56.14.39.55.25.71-.07.42-.58,0,.38.28.18-.53.33-.94.31-.42.2-.48.36-.32,0,0-.42.74-.42-.68,0-.47.06-.28-.29v-.7l-.19-.15-.29.09-.14-.14-.32.4-.13.39-.15.24-.18.07-.14,0,0,.12h-1.44l-.19.09-.45.36-.05,0-.14.2h-.81l-.19.08.07.1,0,.15v.05L328,199l-.43.08-.5.26h-.11l-.14-.07,0-.07v-.06l.09-.17.2-.27.13-.29-.09-.44-.09-.46-.44-.24,0-.09-.06-.06h-.12l-.08-.08,0-.12-.09.05h-.11l0-.06-.11-.05,0-.13-.33-.17-.34-.17-.42-.2-.4-.19-.38.15H324l-.52-.13-.35.06-.41-.16-.43-.08-.3,0-.13-.09-.08-.29h-.14v.2H309.77l-.82-.52-.3-.23-.78-.22-.23-.49.06-.33-.55-.24-.07-.44-.52-.41v-.29l.24-.28v-.36l-.72-.37-.44-.66-.27-.43L305,190l-.28-.25-.23-.31-.43.2-.41.33-.38-.39-.3-.27-.41-.17-.42,0v-6.27l.79.17.67.35.44.07.38-.3.51-.23.64.09.63-.32.7-.18.29.3.32-.17.1-.35.29.08.72.66.57-.5,0,.56.53-.12.16-.22.51.05.65.3,1,.26.59.13.41-.05.58.36-.6.35.77.15,1.15-.08.36-.12.45.42.47-.36-.44-.3.28-.24.52,0,.34-.07.34.17.43.38.47-.06.76.32.66-.11.62,0-.05-.44.38-.13.66.24v.67l.27-.56.35,0,.19-.72-.46-.44-.49-.3,0-.82.5-.55.57.13.43.33.58.84-.38.36.79.14"/><path id="path110" class="cls-31" d="M313.52,180.32l-.21.36.95-.23.59.39.48-.4.39.26.35.75.21-.32-.3-.79.38-.11.42.12.47.32.27.74.13.53.72.37.77.35-.05.32-.7.06.27.28-.14.26-.77-.11-.73-.2-.5,0-.8.24-1.08.11-.75.06-.23-.33-.58-.2-.38.08-.53-.57.29-.08.65-.13.6,0,.56-.13-.82-.17-.91.06-.61,0-.22-.27,1-.3H312l-.75-.2.36-.57.3-.31,1.14-.48.43.16"/><path id="path112" class="cls-31" d="M317.64,180.08l-.38.52-.66-.55.15-.11.57,0,.32.17"/><path id="path114" class="cls-31" d="M329.63,180.33l0,.22-.46,0h-.46l-.46.1-.12,0-.47-.42v-.28l.21-.06,1,.09.74.43"/><path id="path116" class="cls-31" d="M325.28,180.29l.33.48.39-.63,1.08-.32.73.81-.06.51.84-.23.41-.3.94.39.59.36.05.33.79-.17.45.48,1,.29.37.3.41.68-.78.33,1,.47.67.15.62.64.67,0-.14.48-.74.78-.53-.28-.67-.65-.55.08-.05.39.45.39.57.31.18.17.28.65-.15.46-.54-.18-1.06-.51.6.55.44.39.07.22-1.15-.25-.92-.37-.51-.32.14-.18-.63-.33-.62-.32v.19l-1.24.1-.36-.22L329,186h.8l.88-.09-.14-.24.15-.34.55-.67-.12-.31-.16-.24-.65-.34-.87-.24.28-.18-.46-.45-.37,0-.34-.25-.22.21-.78.1L326,182.7l-.9-.21-.69-.11-.35-.26.44-.34h-.6l-.13-.77.32-.69.44-.32,1.1-.21-.31.51"/><path id="path118" class="cls-31" d="M319.4,179.75l.51.16.76-.1.11.23-.4.38.65.33-.08.69-.7.29-.41-.06-.29-.29-1.06-.59v-.25l.87.1-.47-.51.5-.38"/><path id="path122" class="cls-31" d="M310.84,181.65l-1.12.36-.22-.33-1-.4.18-.32.29-.57.37-.51-.41-.49,1.44-.13.6.17,1.09,0,.41.23.46.34-.53.2-1.05.54-.53.54v.33"/><path id="path124" class="cls-31" d="M322.27,178.83l-.23.31-.62-.06-.51-.21.23-.37.61-.22.37.29.15.26"/><path id="path126" class="cls-31" d="M320.19,177.37l.33.4v.43l-.19.61-.7.09-.46-.13v-.49l-.7.07,0-.65.46,0,.64-.29.6.05,0-.12"/><path id="path128" class="cls-31" d="M316.06,177.81l.17.3.38-.14.44,0,.08.41-.26.39-1.44.13-1.08.35h-.65l-.05-.26.88-.36-1.92.1-.59-.15.58-.81.4-.24,1.19.29.76.49.74.06-.6-.8.39-.31.44.1.14.4"/><path id="path130" class="cls-31" d="M321.82,177.05l.47.28h.84l.37.28-.1.32.49.19.27.2.57,0,.62.07.68-.18.87-.08.69.06.46.32.09.34-.27.21-.63.18-.54-.1-1.23.12-.87,0-.69-.1-1.13-.26-.15-.46-.05-.41-.43-.36-.88-.11-.49-.26.16-.35.88.05"/><path id="path132" class="cls-31" d="M312.66,176.57l-.06.67-.33.3-.4,0-.79.36-.68.13-.58-.18h0l.73-.64.87-.56h.65l.59-.13"/><path id="path134" class="cls-31" d="M322.18,176.68l-.2,0-.79-.06-.12-.24h.86l.3.16-.05.1"/><path id="path136" class="cls-31" d="M315.22,176.53l-.8.25-.63-.28.35-.28.62-.09.6.14-.14.26"/><path id="path138" class="cls-31" d="M315.44,175.73l-.52.17h-.7v-.13l.44-.27.23,0,.55.19"/><path id="path140" class="cls-31" d="M321.33,176.21l-.63.18-.35-.2-.18-.33,0-.38.55,0,.25.06.51.31-.12.32"/><path id="path142" class="cls-31" d="M319.53,176l.17.37-.7-.09-.7-.29-.95,0,.41-.27-.51-.22,0-.35.83.13,1.15.33.33.42"/><path id="path144" class="cls-31" d="M325.08,174.76l.51.3-.58.27-.79.68-.75.06-.88-.11-.46-.37v-.33l.33-.24h-.78l-.46-.31-.27-.42.29-.42.3-.29.43-.07-.18-.22,1-.05.54.51.72.21.69.18.34.61"/><path id="path146" class="cls-31" d="M333,171.41l1.13.08.92.13.78.28,0,.26-1,.44-1,.2-.39.21h.93l-1,.59-.7.27-.73.76-.87.16-.27.18-1.29.1.58.12-.29.16.35.45-.4.3-.66.25-.2.34-.6.26.06.2.73,0v.21l-1.14.5-1.11-.23-1.25.13-.64-.1-.8,0,0-.41.78-.2-.21-.63.26-.06,1.14.38-.58-.57-.69-.17.34-.34.76-.22.12-.32-.6-.36-.18-.48,1.16,0,.34.1.66-.34-1-.11-1.49.06-.75-.32-.35-.39-.5-.29-.09-.33.63-.19.5,0,.83-.16.63-.38.53,0,.46.29.32-.55.56-.16.76-.12,1.31,0,.22.11,1.23-.17.92.06.93.07"/><path id="path240" class="cls-31" d="M342.22,171.9l1.43-.61,1.49,0,.55-.38,1.5-.1,3.4.13,2.66.82-.78.38-1.63,0-2.29.1.21.17,1.51-.11,1.28.34.83-.3.35.36-.47.56,1.09-.36,2.07-.38,1.27.19.24.42-1.73.68-.25.22-1.36.16,1,.05-.5.67-.34.59v1l.51.57-.66,0-.7.27.78.45.1.71-.45.07.55.7-.94.06.49.33-.14.28-.6.12h-.59l.53.53V181l-.84-.32-.22.21.58.19.56.47.16.6-.76.14-.33-.28-.53-.43.15.5-.49.39,1.12,0,.58,0-1.14.64-1.15.56-1.25.25h-.47l-.44.27-.59.73-.92.48-.29,0-.57.17-.61.16-.37.41v.46l-.22.43-.69.51.17.5-.19.52-.22.6-.6,0-.63-.51h-.85l-.41-.34-.29-.62-.73-.8-.22-.42-.06-.59-.59-.62.16-.51-.29-.24.42-.82.64-.26.17-.3.09-.57L340,183l-.23.11-.38.1-.52-.24,0-.49.17-.4h.39l.87.2-.73-.47-.38-.26-.43.1-.35-.18.47-.72-.26-.29-.33-.54-.52-.85-.54-.32v-.34L336,177.9l-.9-.06-1.14,0-1,.06-.49-.27-.74-.53,1.12-.27.85-.05-1.82-.23-1-.36.06-.34,1.61-.43,1.56-.44.17-.34-1.15-.33.37-.38,1.47-.67.62-.1-.17-.44,1-.26,1.31-.16h1.31l.47.3,1.13-.54,1,.37.6.08.88.32-1-.53.06-.43"/><path id="path552" class="cls-31" d="M321.76,195.38l.08.29.13.09.3,0,.43.08.41.16.35-.06.52.13h.14l.38-.15.4.19.42.2.34.17.33.17.05.13.1.05,0,.06h.11l.09-.05,0,.12.08.08h.12l.06.06,0,.09.44.24.09.46.09.44-.12.29-.2.27-.1.17v.06l0,.07.14.07H327l.5-.26L328,199l.56-.24v-.05l0-.15-.07-.1.19-.08h.81l.14-.2.05,0,.45-.36.2-.09h1.43l0-.12.14,0,.18-.07.15-.24.13-.39.32-.4.14.14.29-.09.19.15v.7l.28.29.07.17-.46.24-.43.17-.45.15-.23.3-.07.11V199l.14.26h.17l0-.18.13.11,0,.14-.29.08h-.2l-.31.09-.19,0-.25,0-.35.14.62-.09.13.09-.6.14h-.27v-.06l-.12.14.12,0-.09.35-.31.37,0-.13-.1,0-.14-.12.09.26.11.08v.18l-.13.19-.24.38,0,0,.13-.33-.22-.18-.05-.39-.08.2.09.31-.28-.08.29.15,0,.45.12,0,.05.16.06.47-.27.34-.44.14-.28.27-.21,0-.22.17-.06.15-.47.3-.24.21-.2.27-.06.32.07.31.14.38.19.32v.19l.21.51,0,.3,0,.17-.1.27-.13.05-.21-.05-.07-.19-.16-.1-.22-.38-.2-.34-.07-.17.09-.29-.12-.25-.33-.37-.17-.07-.43.2-.07,0-.21-.21-.26-.11-.49.06-.37,0-.33,0-.17.07.07.12V205l.09.09-.09,0-.15-.06-.16.08h-.31l-.32-.24-.37.06-.31-.1-.27,0-.35.1-.39.33-.42.19-.24.21-.1.2v.31l0,.21.08.15h-.16l-.31-.1-.33-.13-.12-.21-.09-.31-.25-.25-.15-.26-.21-.3-.3-.18h-.35l-.27.35-.35-.14-.22-.13-.11-.25-.14-.23-.25-.2-.22-.14-.16-.16h-.73v.18h-1.19l-1-.32-.64-.22,0-.09-.54.05-.49,0-.07-.23-.27-.26-.2-.06-.05-.13-.24,0-.15-.13-.4,0-.1-.08-.06-.25-.41-.47-.35-.65v-.11l-.19-.16-.33-.4-.05-.39-.23-.26.09-.41v-.42l-.14-.37.17-.47.05-.46.05-.46-.08-.68-.13-.45-.12-.24.05-.1.61.18.23.49.1-.14L310,196l-.15-.43h11.79v-.2h.14"/><path id="path554" class="cls-31" d="M297,191.08l-.43.22-.21-.15-.07-.28.39-.21.22-.09.29,0,.18.19-.37.28"/><path id="path556" class="cls-31" d="M291.64,189.4l-.27.1-.27-.12-.26-.16.42-.11.34.06,0,.23"/><path id="path560" class="cls-31" d="M296.11,181.83l.31.34.19-.15.72,0,0,.17.65.12.44-.07.89.23.82.07.33.1.57-.12.64.22.47.1h0v6.27l.42,0,.41.17.3.27.38.39.41-.33.43-.2.23.31.28.25.39.27.27.43.44.66.72.37v.36l-.24.28-.23-.22L306,192l-.12-.5-.55-.47-.23-.56-.41,0H304l-.5-.17-.88-.63-.41-.11-.74-.22-.59,0-.84-.28-.5-.27-.48.14.09.42-.23,0-.5.13-.37.2-.47.13-.06-.36.19-.6.45-.19-.12-.15-.54.34-.29.41-.61.43.31.3-.4.43-.46.24-.43.18-.1.26-.67.31-.13.27-.5.24-.29,0-.4.16-.43.19-.36.19-.73.16-.06-.09.46-.27.42-.17.45-.32.53-.06.21-.24.59-.35.1-.11.31-.21.07-.45.22-.36-.49.19-.14-.11-.23.22-.28-.3-.11.21-.16-.3-.43.24h-.26l0-.36.07-.22-.27-.21-.55.11-.36-.28-.3-.15v-.35l-.33-.27.17-.36.35-.36.15-.32.34,0,.3.1.34-.31.31.06.32-.21-.08-.29-.24-.12.32-.26h-.26l-.45.15-.13.14-.34-.14-.6.07-.62-.16-.18-.27-.54-.38.6-.29.95-.33h.35l-.06.34.9,0L293,185l-.52-.26-.31-.35-.4-.3-.59-.22.24-.37.75,0,.54-.32.1-.36.44-.35.41-.08.81-.33.39,0,.66-.4.64.16"/><path id="path88" class="cls-31" d="M335,196.86l.31.07.4,0-.21.21-.16,0-.54-.22-.11-.17.17-.16.14.25"/><path id="path90" class="cls-31" d="M335.82,195.53h-.21l-.55-.17-.4-.25.15-.05.56.14.43.22,0,.1"/><path id="path92" class="cls-31" d="M309.55,195.84l-.22.07-.7-.24-.12-.18-.39-.19-.07-.15-.44-.1-.16-.29,0-.12.45.12.26.08.4,0,.14.19.22.25.42.22.18.29"/><path id="path96" class="cls-31" d="M305.43,192.77l.2.07.41-.05-.13.64.37.44h-.17l-.26-.25-.15-.26-.22-.17-.08-.24,0-.18"/><path id="path120" class="cls-31" d="M322.45,180.59l-.46.57-.48,0-.27-.68v-.39l.22-.34.43-.22.88,0,.82.2-.64.7-.51.15"/><path id="path542" class="cls-31" d="M295.91,209.51l-.06.07-.11-.06v-.12l-.07-.16,0,0,.08-.07,0-.09,0,0h0l.16.07.07,0,.07.06.11.15v0l-.17.09-.13.07"/><path id="path544" class="cls-31" d="M295.68,208.84l-.14,0-.08-.09,0,0v0l0,0,.15,0,.12.06,0,.05"/><path id="path546" class="cls-31" d="M295.39,208.62v0h-.23l0-.05.21,0"/><path id="path548" class="cls-31" d="M295,208.55l0,0h-.18l-.06-.1v0l.11-.06,0,0,.12.14"/><path id="path550" class="cls-31" d="M294.29,208.27l-.05,0-.14-.07,0,0,.06,0h.1v.1"/></g><text class="cls-3" transform="translate(288.84 112.7)"><tspan class="cls-8">E</tspan><tspan x="10.7" y="0">u</tspan><tspan class="cls-9" x="22.85" y="0">r</tspan><tspan x="29.84" y="0">opa </tspan><tspan x="3.1" y="26.47">del Sur</tspan></text><text class="cls-3" transform="translate(266.8 254.01)"><tspan class="cls-16">A</tspan><tspan x="13.43" y="0">mé</tspan><tspan class="cls-5" x="42.87" y="0">r</tspan><tspan class="cls-13" x="50.17" y="0">ica del </tspan><tspan x="30.66" y="26.47">No</tspan><tspan class="cls-23" x="57.28" y="26.47">r</tspan><tspan class="cls-11" x="65.02" y="26.47">t</tspan><tspan x="72.18" y="26.47">e</tspan></text><g id="Northern_Africa" data-name="Northern Africa"><path id="path188" class="cls-32" d="M325.26,348.2l-3.92,2.2L318,352.65l-1.61.51-1.27.11v-.72l-.53-.19-.71-.33-.28-.53L309.77,349l-3.86-2.53-4.3-2.85,0-.23v-1.49l1.85-.89,1.14-.18.93-.32.44-.61,1.34-.48.05-.89.66-.11.52-.45,1.49-.21.21-.47L310,337l-.39-1.3-.07-.75-.43-.8,1.1-.68,1.23-.22.72-.52,1.11-.38,1.93-.23,1.9-.1.57.19,1.08-.5h1.22l.47.29.78-.07-.23.64.18,1.2-.27,1-.71.69.1.93.94.73v.3l.7.49.49,2.18.37,1.06.06.55-.2,1,.09.54-.15.65.1.74-.45.49.67.86.05.5.4.65.54-.21.9.54.5.73"/><path id="path192" class="cls-32" d="M351.48,341.09l-.33.48-.24.9-.31.62-.27.21-.38-.39-.52-.53-.81-1.71-.12.1L349,342l.71,1.19.86,1.85.42.63.37.67,1,1.29-.23.2,0,.76,1.33,1,.2.24H340.13v-8.5l-.34-1,.29-.74-.18-.52.42-.58,1.52,0,1.1.32,1.13.36.53.19.88-.39.48-.35,1-.1.82.16.31.6.26-.4.92.29.89.07.56-.31.76,2.08"/><path id="path328" class="cls-32" d="M328.52,348.9l-.81.43-.64-.63-1.81-.5-.5-.73-.9-.54-.54.21-.4-.65-.05-.5-.67-.86.45-.49-.1-.74.15-.65-.09-.54.2-1-.06-.55-.37-1.06.56-.28.1-.51-.12-.51.78-.47.35-.39.56-.35.07-.94,1.34.43.48-.11,1,.2,1.51.55.54,1.08,1,.24,1.61.51,1.22.6.55-.32.55-.55-.27-.93.36-.6.83-.57.79-.17,1.54.25.39.55h.43l.36.2,1.14.15.28.4-.42.58.18.52-.29.74.34,1v10.79h-1.32v.48l-4.56-2.2-4.56-2.21-1.16.63"/><path id="path340" class="cls-32" d="M305.6,333.43l.69.53,1.09-.09,1.18.28h.5l.43.8.07.75L310,337l.3.26-.21.47-1.49.21-.52.45-.66.11-.05.89-1.34.48-.44.61-.93.32-1.14.18-1.85.89v1.41h-.18l0,.63-.71,0-.37.27h-.51l-.42-.16-1,.13-.37.92-.36.09-.54,1.47-1.59,1.26-.38,1.6-.46.52-.14.41-2.58.1h0l.06-.54.44-.31.37-.6-.07-.4.39-.82.64-.74.38-.18.3-.69,0-.62.41-.73.77-.43.72-1.2,0,0,.58-.46,1.06-.13.9-.81.57-.32,1-1-.29-1.51.44-1,.15-.65.74-.82,1.14-.57.85-.51.77-1.28.36-.77h.84"/><path id="path474" class="cls-32" d="M350.38,364l-.16,0,0-.56-.14-.38-.59-.44-.13-.8.13-.82-.53-.08-.07.25-.69.06.27.32.1.67-.63.61-.57.81-.59.11-1-.65-.43.23-.12.32-.59.21,0,.23h-1.13l-.16-.23-.83,0-.41.19-.31-.1-.59-.65-.2-.3-.82.15-.32.52-.29,1-.39.2-.35.12-.1-.05-.39-.32-.08-.34.19-.46v-.45l-.66-.7-.13-.47v-.27l-.42-.33v-.65l-.24-.43-.4.06.11-.41.3-.46-.13-.47.37-.34-.23-.26.3-.7.52-.82,1,.08-.06-4.5v-.48h1.32V349.9H353.7l.37,1.13-.25.21.16,1.18.42,1.36.44.28.63.42-.58.64-.85.19-.36.35-.11.75-.49,1.65.12.45-.18,1-.47,1.1-.69.56-.49.85-.11.45-.54.31-.34,1.17V364"/><path id="path526" class="cls-32" d="M322.38,340.12l-.49-2.18-.7-.49v-.3l-.94-.73-.1-.93.71-.69.27-1-.18-1.2.23-.64,1.24-.51.8.15,0,.64,1-.47.08.25-.57.61v.59l.4.31-.15,1.08-.75.62.21.67.59,0,.29.59.44.19-.07.94-.56.35-.35.39-.78.47.12.51-.1.51-.56.28"/><path id="path470" class="cls-32" d="M301.48,343.92l0-.63h.18v.08l0,.23v1.78l-3.75-.06,0,3-1.08.1-.28.6.22,1.66h-4.48l-.25.38.05-.48h0l2.58-.1.14-.41.46-.52.38-1.6,1.59-1.26.54-1.47.36-.09.37-.92,1-.13.41.16h.52l.37-.27.71,0"/></g><text class="cls-3" transform="translate(278.35 412.27)"><tspan class="cls-4">Á</tspan><tspan x="13.34" y="0">f</tspan><tspan class="cls-5" x="19.78" y="0">r</tspan><tspan class="cls-13" x="27.08" y="0">ica del </tspan><tspan x="19.11" y="26.47">No</tspan><tspan class="cls-23" x="45.73" y="26.47">r</tspan><tspan class="cls-11" x="53.47" y="26.47">t</tspan><tspan x="60.64" y="26.47">e</tspan></text><path id="path324-2" data-name="path324" class="cls-21" d="M323.67,173.29l-.45,0-.15.31h-.55l.58-1.45.83-1.27,0-.06.74.09.27.71-.9.67-.4,1"/></g></g></svg>